<svg id="Layer_1" fill='#01DBCA' enable-background="new 0 0 512.099 512.099" height="512" viewBox="0 0 512.099 512.099" width="512" xmlns="http://www.w3.org/2000/svg"><g><path d="m300.921 352.156c-4.929-4.929-11.489-7.643-18.474-7.643s-13.545 2.714-18.474 7.643l-27.797 27.797c-2.828 2.827-7.428 2.828-10.256 0l-93.357-93.357c-2.827-2.828-2.827-7.428 0-10.256l27.797-27.797c4.929-4.929 7.644-11.489 7.644-18.473s-2.715-13.545-7.644-18.474l-65.035-65.036c-10.186-10.187-26.762-10.187-36.947 0l-43.531 43.532c-13.865 13.865-25.075 42.012.259 97.37 17.491 38.219 49.063 81.208 88.902 121.047 39.613 39.614 82.724 71.09 121.387 88.628 21.845 9.909 41.436 14.864 57.97 14.864 16.226 0 29.507-4.776 39.061-14.33l43.531-43.532c10.187-10.187 10.187-26.761 0-36.947z"/><path d="m356.599 89.098c-14.889 0-27.001 12.112-27.001 27s12.112 27 27.001 27c14.888 0 27-12.112 27-27s-12.112-27-27-27z"/><path d="m356.721.098c-85.676 0-155.378 69.703-155.378 155.379 0 29.167 8.035 57.307 23.308 81.874l-22.377 60.547c-2.03 5.493-.679 11.666 3.463 15.807 2.864 2.864 6.698 4.394 10.609 4.394 1.743 0 3.503-.305 5.197-.931l63.878-23.609c21.935 11.335 46.435 17.297 71.3 17.297 85.676 0 155.379-69.703 155.379-155.378-.001-85.677-69.704-155.38-155.379-155.38zm61.878 233.505c-8.284 0-15-6.716-15-15 0-22.651-16.06-41.962-38.276-46.173-2.845.439-5.758.668-8.724.668-3.283 0-6.497-.294-9.629-.83-.796.376-1.629.699-2.509.936-20.526 5.534-34.861 24.203-34.861 45.399 0 8.284-6.716 15-15 15s-15-6.716-15-15c0-26.362 13.527-50.323 34.733-64.305-9.151-10.116-14.734-23.518-14.734-38.2 0-31.43 25.57-57 57.001-57 31.43 0 57 25.57 57 57 0 14.695-5.592 28.107-14.756 38.226 6.088 4.016 11.64 8.888 16.432 14.529 11.816 13.91 18.324 31.578 18.324 49.75-.001 8.284-6.716 15-15.001 15z"/></g></svg>