<svg width="633" height="462" viewBox="0 0 633 462" fill="none" xmlns="http://www.w3.org/2000/svg">
<path d="M153.999 168.489C149.132 245.246 209.665 242.944 260.578 259.59C349.255 288.582 345.032 431.887 414.338 422.165C465.668 414.965 519.513 318.187 505.972 234.907C494.18 162.382 447.263 116.229 368.013 86.7136C283.609 55.278 159.237 85.8849 153.999 168.489Z" fill="#4066EA" fill-opacity="0.18"/>
<path d="M204.5 403.148C215.325 421.589 196 428.315 193 430.148C223.5 419.148 242.5 403.148 232.5 380.648C222.5 358.148 197.574 344.148 154.5 322.648C118.211 304.535 111.483 256.966 113.253 235.552C113.352 234.361 110.549 233.192 109.919 234.208C82.974 277.66 82.58 337.663 126 363.148C172 390.148 193.675 384.708 204.5 403.148Z" fill="#001E87" fill-opacity="0.5"/>
<path d="M277.344 359.111C297.739 341.092 321.78 343.249 333.537 342.981C332.227 348.818 329.58 352.765 322.579 361.543C315.579 370.32 304.111 378.824 289.573 378.595C297.465 398.389 263.905 422.759 260.642 425.363C260.599 425.457 260.546 425.521 260.483 425.554C260.313 425.642 260.378 425.573 260.642 425.363C262.185 422.035 252.555 381.013 277.344 359.111Z" fill="#6885EF"/>
<path fill-rule="evenodd" clip-rule="evenodd" d="M341 433.621C341 442.8 296.168 450.241 240.865 450.241C226.388 450.241 212.628 449.731 200.202 448.814C182.612 452.021 158.463 454 131.815 454C108.747 454 87.5522 452.517 70.8634 450.038C64.7965 450.613 58.1368 450.93 51.15 450.93C22.9006 450.93 0 445.742 0 439.343C0 433.428 19.5701 428.548 44.8445 427.844C60.9111 421.975 93.8237 417.953 131.815 417.953C149.545 417.953 166.168 418.829 180.49 420.36C197.276 418.251 218.19 417 240.865 417C296.168 417 341 424.441 341 433.621Z" fill="#293354"/>
<mask id="mask0" mask-type="alpha" maskUnits="userSpaceOnUse" x="102" y="350" width="100" height="97">
<ellipse cx="151.888" cy="398.474" rx="20.5" ry="49" transform="rotate(-47.2224 151.888 398.474)" fill="#C4C4C4"/>
</mask>
<g mask="url(#mask0)">
<ellipse cx="162.076" cy="387.464" rx="20.5" ry="49" transform="rotate(-47.2224 162.076 387.464)" fill="#FFC7EC"/>
</g>
<mask id="mask1" mask-type="alpha" maskUnits="userSpaceOnUse" x="133" y="331" width="71" height="107">
<ellipse cx="168.493" cy="384.166" rx="20.5" ry="49" transform="rotate(-19.227 168.493 384.166)" fill="#F4A0D7"/>
</mask>
<g mask="url(#mask1)">
<ellipse cx="182.656" cy="379.226" rx="20.5" ry="49" transform="rotate(-19.227 182.656 379.226)" fill="#F4A0D7"/>
</g>
<mask id="mask2" mask-type="alpha" maskUnits="userSpaceOnUse" x="106" y="396" width="91" height="53">
<ellipse cx="151.403" cy="422.43" rx="17.7673" ry="42.4682" transform="rotate(-77.7769 151.403 422.43)" fill="#8D8D8D"/>
</mask>
<g mask="url(#mask2)">
<ellipse cx="154.155" cy="409.724" rx="17.7673" ry="42.4682" transform="rotate(-77.7769 154.155 409.724)" fill="#D84AA8"/>
</g>
<path d="M500.61 441.269C522.636 421.523 471.713 425.449 445.839 425.449C419.966 425.449 355 422.086 355 433.762C355 445.439 382.144 435.43 414.446 441.269C465.209 450.443 474.561 464.621 500.61 441.269Z" fill="#293354"/>
<path d="M445.5 423.148C440.006 428.535 438.581 431.593 438.462 433.714C438.406 434.72 437.365 435.37 436.686 434.627C423.98 420.73 426.728 406.559 438.969 391.908C451.949 376.373 457.209 378.733 490.191 360.941C523.173 343.15 531.932 308.024 529.286 298.362C556.201 336.659 546.139 378.286 510.41 397.652C474.68 417.018 454.679 414.148 445.5 423.148Z" fill="#6885EF" fill-opacity="0.5"/>
<path d="M419.353 420.192C419.568 420.634 419.785 420.957 420 421.148C419.783 420.829 419.567 420.51 419.353 420.192C416.179 413.658 413.666 381.121 431.5 364.648C450.54 347.061 485.847 336.391 544 322.148C598.191 308.875 636.051 279.091 619.919 228.564C619.545 227.394 618.098 227.837 618.341 229.042C624.863 261.277 620.046 295.102 546.5 313.648C463.829 334.495 436.077 335.193 417 357.648C398.2 379.777 404.819 398.591 419.353 420.192Z" fill="#D84AA8" fill-opacity="0.6"/>
<path fill-rule="evenodd" clip-rule="evenodd" d="M542.774 249.239C543.325 256.408 542.712 264.098 539.694 271.168C539.529 262.824 538.247 255.282 536.617 248.943C530.915 249.1 525.154 250.456 519.699 253.134C519.104 253.426 518.503 253.734 517.897 254.057C521.38 260.831 523.968 268.696 523.74 276.91C520.488 269.121 516.473 262.513 512.59 257.183C506.803 260.917 500.863 265.803 495.711 271.423C500.234 276.15 504.191 281.815 506.353 288.388C501.654 283.252 496.739 279.048 492.098 275.656C485.874 283.518 481.424 292.482 480.914 301.587C487.348 300.161 494.248 303.399 497.377 309.771C500.564 316.261 498.785 323.859 493.501 328.033C500.909 333.534 510.452 335.561 520.241 335.433C520.914 329.791 521.108 323.287 520.216 316.381C524.167 321.948 525.74 328.651 526.082 335.112C533.337 334.423 540.522 332.699 546.87 330.473C545.509 324.356 543.096 317.077 538.837 309.761C545.925 314.259 550.312 321.251 553.025 328.049C553.997 327.621 554.937 327.184 555.841 326.74C561.286 324.067 565.874 320.346 569.482 315.941C565.626 310.677 560.029 304.479 552.279 298.98C560.933 300.563 567.994 305.215 573.375 310.275C578.939 300.514 580.415 288.616 576.826 277.444C573.277 279.183 563.247 279.934 560.652 279.816C561.962 277.316 568.878 270.206 572.424 268.466C572.493 268.431 572.565 268.397 572.639 268.364C565.942 257.51 554.795 250.728 542.774 249.239Z" fill="#001E87"/>
<path d="M422.998 355.268C440.57 324.805 480.338 310.959 496.928 305.041L498.03 307.285C481.299 312.159 442.638 329.471 426.988 359.993C413.472 386.354 417.531 412.779 422.639 427.616C423.143 429.08 422.509 430.706 421.118 431.389C419.544 432.162 417.644 431.425 417.083 429.763C411.846 414.276 406.59 383.713 422.998 355.268Z" fill="#001E87"/>
<path d="M175 433V420H182L179.846 433H175Z" fill="#FFC6EC"/>
<path d="M209 440.148V427.148H215.5L213.5 440.148H209Z" fill="#FFC6EC"/>
<path d="M180 372.648C180.4 362.248 176.5 312.148 176.5 306.148C181 307.148 187.9 307.648 197.5 307.648C207.1 307.648 214.5 306.648 217.5 306.148C220 323.648 222.5 362.848 222.5 367.648C222.5 372.448 218.167 414.167 216 428H208.5C208.667 417.333 208.9 375.848 208.5 372.648C208.1 369.448 201.167 344.482 197.5 336.648C196.5 341.482 194 367.448 194 372.648C194 377.848 186.333 408.815 182.5 423.648H175C174.833 410.982 179.6 383.048 180 372.648Z" fill="#4066EA"/>
<path d="M183 334.148L197.5 336.148C197 337.982 194.8 341.648 190 341.648C185.2 341.648 183.333 336.648 183 334.148Z" fill="url(#paint0_linear)"/>
<path d="M175 215.841C175.333 214.841 176.7 212.441 179.5 210.841C183 208.841 189.5 208.341 191 210.841C192.029 212.556 192 214.341 189.5 215.841C187.188 217.228 178.891 219.47 178.445 220.591C178.668 220.933 178.72 221.061 178.5 220.841C178.425 220.766 178.409 220.682 178.445 220.591C177.859 219.687 176.088 217.291 175 215.841Z" fill="#FFC6EC"/>
<path d="M248 323.343C248.321 324.36 249.635 326.8 252.328 328.427C255.694 330.461 261.944 330.969 263.387 328.427C264.377 326.683 264.349 324.868 261.944 323.343C259.721 321.933 251.742 319.653 251.313 318.514C251.527 318.165 251.577 318.035 251.366 318.259C251.293 318.336 251.278 318.421 251.313 318.514C250.749 319.432 249.046 321.869 248 323.343Z" fill="#FFC6EC"/>
<path d="M189 238.148V247.648C190.167 248.148 191.5 249.148 195.5 249.148C199.5 249.148 201.167 248.148 202 247.648L200.5 243.148C200.833 242.815 202.1 242.148 204.5 242.148C206.9 242.148 208.5 234.482 209 231.648C208.5 230.815 207.5 230.048 207.5 225.648C207.5 214.648 202 209.648 194.5 209.648C187 209.648 185.5 221.648 185.5 224.148C185.5 226.648 189 234.148 189 238.148Z" fill="#FFC6EC"/>
<path d="M196 240.648C193.6 241.448 189.333 240.982 187.5 240.648C186 240.648 186.127 235.807 185.5 232.648C184.58 228.016 184 223.648 184 220.648C184 217.648 185.5 207.148 196 207.148C204.4 207.148 207.833 214.482 208.5 218.148C208.5 220.482 207.7 225.248 204.5 225.648C201.3 226.048 199.5 229.148 199 230.648C199 233.648 198.4 239.848 196 240.648Z" fill="#D84AA8"/>
<path d="M145 244.148C145 256.648 165.333 265.148 176 274.648V308.648C178.5 319.148 186.6 320.148 197 320.148C207.4 320.148 216 309.148 218.5 308.648C217.5 300.482 214.7 277.948 215.5 279.148C216.5 280.648 222.454 297.417 230 307.148C235.839 314.678 244 321.648 247.5 324.148L252.5 319.148C252.5 319.148 237.683 300.544 234.5 293.648C228.5 280.648 225.7 267.748 222.5 260.148C219.3 252.548 207.167 247.982 202.5 247.148C202.5 247.148 195 250.148 189 247.148C179.168 248.953 169.836 243.094 161 240.148C162 235.648 180.5 220.648 180.5 220.648L176 214.148C176 214.148 145 232.648 145 244.148Z" fill="#001E87"/>
<path d="M180.5 430.648H175C174.5 432.982 173.5 437.848 173.5 438.648C173.5 439.648 175 442.148 184 442.148C193 442.148 195 440.148 195 438.648C195 437.148 193 435.648 189.5 435.648C186.7 435.648 182.333 432.315 180.5 430.648Z" fill="#B2C3FF"/>
<path d="M213.5 437.148H209.5C208.833 439.648 207.6 444.948 208 446.148C208.5 447.648 214.5 448.148 217 448.148C219.5 448.148 227 448.148 227 446.148C227 444.148 224 442.648 221.5 442.648C219.5 442.648 215.333 438.982 213.5 437.148Z" fill="#B2C3FF"/>
<path d="M242.119 210.846C249.066 207.584 283.152 199.294 296.878 198.22C310.772 197.132 311.841 238.11 296.878 239.741C288.837 240.617 258.684 246.731 249.066 249.449C239.447 252.168 231.685 243.647 230.362 234.225C228.225 219.002 235.981 213.728 242.119 210.846Z" fill="#001E87"/>
<path d="M463.778 100.734C451.78 103.059 340.083 128.022 278.705 141.434C274.11 142.438 270.868 146.497 270.868 151.201V298.722C270.868 305.106 276.771 309.856 283.008 308.49L466.632 268.28C471.209 267.277 474.477 263.231 474.492 258.545L475 106.171C475 102.909 475 98.5589 463.778 100.734Z" fill="#4066EA"/>
<path d="M457.458 110.033C446.455 112.831 343.097 135.374 285.945 148.181C281.382 149.204 278.178 153.245 278.178 157.921L278.178 178.076C294.815 176.989 309.731 182.823 322.59 179.947C380.315 167.033 467.39 149.926 467.39 149.926V115.265C467.39 112.168 468.979 107.104 457.458 110.033Z" fill="url(#paint1_linear)"/>
<path d="M272.5 71.1483C354 66.6483 475 99.5678 475 99.5678V255.884C475 255.884 359.5 384.785 266 400.648C191.654 413.262 139 346.696 139 230.079C139 113.463 180.141 76.2479 272.5 71.1483Z" fill="url(#paint2_linear)"/>
<path d="M349.583 317.234V169.854C349.583 166.123 351.622 162.723 354.945 161.027C371.897 152.372 425.782 125.303 469.271 108.359C474.862 106.18 475.431 105.636 475.431 105.636C475.431 109.958 475.874 236.257 475.978 266.033C475.992 269.888 473.789 273.343 470.316 275.015L363.921 326.244C357.282 329.441 349.583 324.603 349.583 317.234Z" fill="#6885EF"/>
<path d="M410.645 196.061L383.492 209.196C380.04 210.866 377.847 214.363 377.847 218.198V241.68C377.847 249.021 385.493 253.86 392.128 250.718L419.28 237.857C422.773 236.203 425 232.684 425 228.82V205.063C425 197.686 417.286 192.848 410.645 196.061Z" fill="#9CB0F4"/>
<ellipse rx="10.8246" ry="15.0694" transform="matrix(0.998072 0.0620725 -0.089914 0.99595 401.159 223.829)" fill="#001E87"/>
<defs>
<linearGradient id="paint0_linear" x1="192.5" y1="334.148" x2="190.5" y2="338.648" gradientUnits="userSpaceOnUse">
<stop stop-color="#001E87" stop-opacity="0.5"/>
<stop offset="1" stop-color="#001E87" stop-opacity="0"/>
</linearGradient>
<linearGradient id="paint1_linear" x1="364.5" y1="140.148" x2="368" y2="162.648" gradientUnits="userSpaceOnUse">
<stop stop-color="#0039FF" stop-opacity="0"/>
<stop offset="1" stop-color="#0039FF"/>
</linearGradient>
<linearGradient id="paint2_linear" x1="452" y1="176.5" x2="258.175" y2="236.565" gradientUnits="userSpaceOnUse">
<stop stop-color="white"/>
<stop offset="1" stop-color="white" stop-opacity="0"/>
</linearGradient>
</defs>
</svg>
