<?xml version="1.0" standalone="no"?>
<!DOCTYPE svg PUBLIC "-//W3C//DTD SVG 20010904//EN"
 "http://www.w3.org/TR/2001/REC-SVG-20010904/DTD/svg10.dtd">
<svg version="1.0" xmlns="http://www.w3.org/2000/svg"
 width="1280.000000pt" height="1280.000000pt" viewBox="0 0 1280.000000 1280.000000"
 preserveAspectRatio="xMidYMid meet">
<metadata>
Created by potrace 1.16, written by Peter Selinger 2001-2019
</metadata>
<g transform="translate(0.000000,1280.000000) scale(0.100000,-0.100000)"
fill='#01DBCA' stroke="none">
<path d="M7670 11457 c-90 -25 -158 -86 -186 -166 -20 -56 -17 -159 7 -211 16
-35 483 -508 2202 -2227 l2182 -2183 -5845 -2 -5845 -3 -41 -22 c-54 -29 -117
-101 -132 -151 -19 -62 -15 -159 8 -207 27 -57 76 -104 135 -131 l50 -24 5835
0 5835 0 -2181 -2182 c-1531 -1532 -2187 -2195 -2200 -2223 -29 -63 -31 -170
-4 -234 41 -94 145 -161 251 -161 21 0 64 9 96 21 56 20 143 107 2471 2433
1327 1326 2429 2435 2450 2464 32 47 37 63 40 123 3 39 -1 91 -8 117 -12 44
-154 189 -2454 2490 -1667 1668 -2454 2449 -2481 2462 -53 25 -130 32 -185 17z"/>
</g>
</svg>
