<?xml version="1.0" encoding="iso-8859-1"?>
<!-- Generator: Adobe Illustrator 19.1.0, SVG Export Plug-In . SVG Version: 6.00 Build 0)  -->
<svg version="1.1" fill='#01DBCA' stroke='' id="Capa_1" xmlns="http://www.w3.org/2000/svg" xmlns:xlink="http://www.w3.org/1999/xlink" x="0px" y="0px"
	 viewBox="0 0 503.472 503.472" style="enable-background:new 0 0 503.472 503.472;" xml:space="preserve">
<g>
	<g>
		<path d="M380.401,194.552l7.459,9.945c2.486,2.486,4.973,4.973,7.459,4.973l0,0c2.486,0,4.973,0,7.459-2.486l54.698-49.726
			c4.973-4.973,4.973-12.431,0-17.404l-116.855-126.8c-2.486-2.486-4.973-4.973-7.459-4.973s-7.459,0-9.945,2.486l-54.698,49.726
			c-4.973,4.973-4.973,12.431,0,17.404l7.459,9.945l-89.506,82.047l-7.459-9.945c-4.973-4.973-12.431-4.973-17.404,0l-54.698,49.726
			c-2.486,2.486-4.973,4.973-4.973,7.459s0,7.459,2.486,9.945L221.279,356.16c2.486,2.486,4.973,4.973,7.459,4.973l0,0
			c2.486,0,4.973,0,7.459-2.486l54.698-49.726c2.486-2.486,4.973-4.973,4.973-7.459s0-7.459-2.486-9.945l-7.459-9.945l17.404-17.404
			l144.204,156.636c2.486,2.486,4.973,4.973,7.459,4.973l0,0c2.486,0,4.973,0,7.459-2.486l37.294-34.808
			c4.973-4.973,4.973-12.431,0-17.404L355.538,214.442L380.401,194.552z M333.162,35.43l101.938,109.396l-37.294,32.322
			l-7.459-9.945l0,0L305.813,75.21l0,0l-7.459-9.945L333.162,35.43z M233.711,328.811L131.773,219.414l37.294-34.808l17.404,19.89
			l74.588,82.047l0,0l7.459,9.945L233.711,328.811z M203.875,187.093l91.992-84.534l67.13,72.102l-27.349,24.863l0,0l-37.294,37.294
			l0,0l-27.349,24.863L203.875,187.093z M477.366,376.05l-17.404,17.404L325.703,246.764l17.404-17.404L477.366,376.05z"/>
		<path d="M348.08,482.96v-49.726c0-7.459-4.973-12.431-12.431-12.431h-37.294v-37.294c0-7.459-4.973-12.431-12.431-12.431H62.157
			c-7.459,0-12.431,4.973-12.431,12.431v37.294H12.431C4.973,420.803,0,425.776,0,433.235v49.726
			c0,7.459,4.973,12.431,12.431,12.431h323.217C343.107,495.392,348.08,490.419,348.08,482.96z M74.588,395.94h198.903v24.863
			H74.588V395.94z M323.217,470.529H24.863v-24.863h37.294h223.765h37.294V470.529z"/>
	</g>
</g>
<g>
</g>
<g>
</g>
<g>
</g>
<g>
</g>
<g>
</g>
<g>
</g>
<g>
</g>
<g>
</g>
<g>
</g>
<g>
</g>
<g>
</g>
<g>
</g>
<g>
</g>
<g>
</g>
<g>
</g>
</svg>
