<?xml version="1.0" encoding="UTF-8" standalone="no"?>
<svg
   xmlns:dc="http://purl.org/dc/elements/1.1/"
   xmlns:cc="http://creativecommons.org/ns#"
   xmlns:rdf="http://www.w3.org/1999/02/22-rdf-syntax-ns#"
   xmlns:svg="http://www.w3.org/2000/svg"
   xmlns="http://www.w3.org/2000/svg"
   xmlns:sodipodi="http://sodipodi.sourceforge.net/DTD/sodipodi-0.dtd"
   xmlns:inkscape="http://www.inkscape.org/namespaces/inkscape"
   width="70mm"
   height="554mm"
   viewBox="0 0 210 297"
   version="1.1"
   id="svg8"
   inkscape:version="1.0.1 (3bc2e813f5, 2020-09-07)"
   sodipodi:docname="bol.svg">
  <style
     id="style833"></style>
  <defs
     id="defs2" />
  <sodipodi:namedview
     id="base"
     pagecolor="#ffffff"
     bordercolor="#666666"
     borderopacity="1.0"
     inkscape:pageopacity="0.0"
     inkscape:pageshadow="2"
     inkscape:zoom="0.35"
     inkscape:cx="400"
     inkscape:cy="606.40736"
     inkscape:document-units="mm"
     inkscape:current-layer="layer1"
     inkscape:document-rotation="0"
     showgrid="false"
     inkscape:window-width="1267"
     inkscape:window-height="1041"
     inkscape:window-x="583"
     inkscape:window-y="0"
     inkscape:window-maximized="0" />
  <metadata
     id="metadata5">
    <rdf:RDF>
      <cc:Work
         rdf:about="">
        <dc:format>image/svg+xml</dc:format>
        <dc:type
           rdf:resource="http://purl.org/dc/dcmitype/StillImage" />
        <dc:title></dc:title>
      </cc:Work>
    </rdf:RDF>
  </metadata>
  <g
     inkscape:label="Layer 1"
     inkscape:groupmode="layer"
     id="layer1">
    <path
       style="fill:#000000;stroke-width:0.374177"
       id="path866"
       d="" />
    <path
       style="fill:#000000;stroke-width:0.264583"
       id="path878"
       d="" />
    <path
       style="fill:#000000;stroke-width:0.264583"
       id="path911"
       d="" />
    <g
       id="g967"
       transform="translate(-27.970238,-1.5119048)">
      <path
         style="fill:#b9b9b9;fill-opacity:1;stroke-width:1.9088"
         d="m 113.07798,162.11021 c 0,-0.54259 0.4155,-0.98652 0.92333,-0.98652 0.50783,0 0.92333,0.44393 0.92333,0.98652 0,0.54258 -0.4155,0.98652 -0.92333,0.98652 -0.50783,0 -0.92333,-0.44394 -0.92333,-0.98652 z m 7.38664,0 c 0,-0.54259 0.4155,-0.98652 0.92333,-0.98652 0.50783,0 0.92333,0.44393 0.92333,0.98652 0,0.54258 -0.4155,0.98652 -0.92333,0.98652 -0.50783,0 -0.92333,-0.44394 -0.92333,-0.98652 z m 40.62653,0 c 0,-0.54259 0.4155,-0.98652 0.92333,-0.98652 0.50783,0 0.92333,0.44393 0.92333,0.98652 0,0.54258 -0.4155,0.98652 -0.92333,0.98652 -0.50783,0 -0.92333,-0.44394 -0.92333,-0.98652 z m 7.38664,0 c 0,-0.54259 0.4155,-0.98652 0.92333,-0.98652 0.50783,0 0.92333,0.44393 0.92333,0.98652 0,0.54258 -0.4155,0.98652 -0.92333,0.98652 -0.50783,0 -0.92333,-0.44394 -0.92333,-0.98652 z m -59.09313,-1.97304 c 0,-0.54258 0.4155,-0.98652 0.92333,-0.98652 0.50783,0 0.92333,0.44394 0.92333,0.98652 0,0.54259 -0.4155,0.98652 -0.92333,0.98652 -0.50783,0 -0.92333,-0.44393 -0.92333,-0.98652 z m 22.77548,-0.32884 c 0.67711,-0.72344 1.7851,-0.72344 2.46221,0 0.67711,0.72345 0.12311,1.31536 -1.23111,1.31536 -1.35421,0 -1.90821,-0.59191 -1.2311,-1.31536 z m 14.77328,0 c 0.67711,-0.72344 1.7851,-0.72344 2.46221,0 0.67711,0.72345 0.12311,1.31536 -1.2311,1.31536 -1.35422,0 -1.90822,-0.59191 -1.23111,-1.31536 z m -41.24208,-3.61723 c 0,-0.54258 0.4155,-0.98652 0.92333,-0.98652 0.50783,0 0.92333,0.44394 0.92333,0.98652 0,0.54259 -0.4155,0.98652 -0.92333,0.98652 -0.50783,0 -0.92333,-0.44393 -0.92333,-0.98652 z m 7.38664,0 c 0,-0.54258 0.4155,-0.98652 0.92333,-0.98652 0.50783,0 0.92333,0.44394 0.92333,0.98652 0,0.54259 -0.4155,0.98652 -0.92333,0.98652 -0.50783,0 -0.92333,-0.44393 -0.92333,-0.98652 z m 9.2333,0 c 0,-0.54258 0.4155,-0.98652 0.92333,-0.98652 0.50783,0 0.92333,0.44394 0.92333,0.98652 0,0.54259 -0.4155,0.98652 -0.92333,0.98652 -0.50783,0 -0.92333,-0.44393 -0.92333,-0.98652 z m 36.93321,0 c 0,-0.54258 0.4155,-0.98652 0.92333,-0.98652 0.50783,0 0.92333,0.44394 0.92333,0.98652 0,0.54259 -0.4155,0.98652 -0.92333,0.98652 -0.50783,0 -0.92333,-0.44393 -0.92333,-0.98652 z m 9.2333,0 c 0,-0.54258 0.4155,-0.98652 0.92333,-0.98652 0.50783,0 0.92333,0.44394 0.92333,0.98652 0,0.54259 -0.4155,0.98652 -0.92333,0.98652 -0.50783,0 -0.92333,-0.44393 -0.92333,-0.98652 z m -29.0849,-2.34658 c 1.77741,-0.49627 4.6859,-0.49627 6.46331,0 1.77741,0.49627 0.32317,0.90231 -3.23165,0.90231 -3.55483,0 -5.00907,-0.40604 -3.23166,-0.90231 z m -35.54821,-1.59949 c 0,-0.54259 0.4155,-0.98652 0.92333,-0.98652 0.50783,0 0.92333,0.44393 0.92333,0.98652 0,0.54258 -0.4155,0.98652 -0.92333,0.98652 -0.50783,0 -0.92333,-0.44394 -0.92333,-0.98652 z m 73.86641,0 c 0,-0.54259 0.4155,-0.98652 0.92333,-0.98652 0.50783,0 0.92333,0.44393 0.92333,0.98652 0,0.54258 -0.4155,0.98652 -0.92333,0.98652 -0.50783,0 -0.92333,-0.44394 -0.92333,-0.98652 z m -36.93321,-5.91911 c 0,-0.54258 0.4155,-0.98652 0.92333,-0.98652 0.50784,0 0.92334,0.44394 0.92334,0.98652 0,0.54259 -0.4155,0.98652 -0.92334,0.98652 -0.50783,0 -0.92333,-0.44393 -0.92333,-0.98652 z m -36.9332,-1.97303 c 0,-0.54259 0.4155,-0.98652 0.92333,-0.98652 0.50783,0 0.92333,0.44393 0.92333,0.98652 0,0.54258 -0.4155,0.98651 -0.92333,0.98651 -0.50783,0 -0.92333,-0.44393 -0.92333,-0.98651 z m 68.32643,0 c 0,-0.54259 0.4155,-0.98652 0.92333,-0.98652 0.50783,0 0.92333,0.44393 0.92333,0.98652 0,0.54258 -0.4155,0.98651 -0.92333,0.98651 -0.50783,0 -0.92333,-0.44393 -0.92333,-0.98651 z m 5.53998,0 c 0,-0.54259 0.4155,-0.98652 0.92333,-0.98652 0.50783,0 0.92333,0.44393 0.92333,0.98652 0,0.54258 -0.4155,0.98651 -0.92333,0.98651 -0.50783,0 -0.92333,-0.44393 -0.92333,-0.98651 z m -40.23767,-4.14507 c -1.30962,-1.51831 -1.56641,-2.76056 -0.57065,-2.76056 1.91765,0 4.69371,3.75314 3.59837,4.86486 -0.35562,0.36094 -1.71809,-0.586 -3.02772,-2.1043 z m 6.99779,1.37975 c 0,-2.04888 3.51274,-5.01492 4.55325,-3.84462 0.33782,0.37996 -0.54846,1.83567 -1.96952,3.23491 -1.42105,1.39925 -2.58373,1.67362 -2.58373,0.60971 z M 107.538,134.48771 c 0,-0.54259 0.4155,-0.98652 0.92333,-0.98652 0.50783,0 0.92333,0.44393 0.92333,0.98652 0,0.54258 -0.4155,0.98652 -0.92333,0.98652 -0.50783,0 -0.92333,-0.44394 -0.92333,-0.98652 z m 5.53998,0 c 0,-0.54259 0.4155,-0.98652 0.92333,-0.98652 0.50783,0 0.92333,0.44393 0.92333,0.98652 0,0.54258 -0.4155,0.98652 -0.92333,0.98652 -0.50783,0 -0.92333,-0.44394 -0.92333,-0.98652 z m 18.4666,0 c 0,-0.54259 0.4155,-0.98652 0.92333,-0.98652 0.50784,0 0.92333,0.44393 0.92333,0.98652 0,0.54258 -0.41549,0.98652 -0.92333,0.98652 -0.50783,0 -0.92333,-0.44394 -0.92333,-0.98652 z m 20.31327,0 c 0,-0.54259 0.41549,-0.98652 0.92333,-0.98652 0.50783,0 0.92333,0.44393 0.92333,0.98652 0,0.54258 -0.4155,0.98652 -0.92333,0.98652 -0.50784,0 -0.92333,-0.44394 -0.92333,-0.98652 z m 16.61994,0 c 0,-0.54259 0.4155,-0.98652 0.92333,-0.98652 0.50783,0 0.92333,0.44393 0.92333,0.98652 0,0.54258 -0.4155,0.98652 -0.92333,0.98652 -0.50783,0 -0.92333,-0.44394 -0.92333,-0.98652 z m 5.53998,0 c 0,-0.54259 0.4155,-0.98652 0.92333,-0.98652 0.50783,0 0.92333,0.44393 0.92333,0.98652 0,0.54258 -0.4155,0.98652 -0.92333,0.98652 -0.50783,0 -0.92333,-0.44394 -0.92333,-0.98652 z m -36.54435,-3.74708 c 1.30963,-1.5183 2.6721,-2.46524 3.02772,-2.1043 1.09534,1.11173 -1.68072,4.86486 -3.59837,4.86486 -0.99576,0 -0.73897,-1.24225 0.57065,-2.76056 z m 7.84518,0.65626 c -1.89479,-3.27565 -0.1941,-3.72988 2.45707,-0.65626 1.30962,1.51831 1.56641,2.76056 0.57065,2.76056 -0.99577,0 -2.35824,-0.94694 -3.02772,-2.1043 z m -30.39396,-0.85525 c 0,-0.54259 0.4155,-0.98652 0.92333,-0.98652 0.50783,0 0.92333,0.44393 0.92333,0.98652 0,0.54258 -0.4155,0.98651 -0.92333,0.98651 -0.50783,0 -0.92333,-0.44393 -0.92333,-0.98651 z m 51.70649,0 c 0,-0.54259 0.4155,-0.98652 0.92333,-0.98652 0.50783,0 0.92333,0.44393 0.92333,0.98652 0,0.54258 -0.4155,0.98651 -0.92333,0.98651 -0.50783,0 -0.92333,-0.44393 -0.92333,-0.98651 z m -48.01317,-5.91911 c 0,-0.54259 0.4155,-0.98652 0.92333,-0.98652 0.50783,0 0.92333,0.44393 0.92333,0.98652 0,0.54258 -0.4155,0.98652 -0.92333,0.98652 -0.50783,0 -0.92333,-0.44394 -0.92333,-0.98652 z m 22.77548,-0.32884 c 0.67711,-0.72345 1.7851,-0.72345 2.46221,0 0.67711,0.72345 0.12311,1.31536 -1.2311,1.31536 -1.35422,0 -1.90822,-0.59191 -1.23111,-1.31536 z m -28.31546,-1.6442 c 0,-0.54258 0.4155,-0.98651 0.92333,-0.98651 0.50783,0 0.92333,0.44393 0.92333,0.98651 0,0.54259 -0.4155,0.98652 -0.92333,0.98652 -0.50783,0 -0.92333,-0.44393 -0.92333,-0.98652 z m 55.39981,0 c 0,-0.54258 0.4155,-0.98651 0.92333,-0.98651 0.50783,0 0.92333,0.44393 0.92333,0.98651 0,0.54259 -0.4155,0.98652 -0.92333,0.98652 -0.50783,0 -0.92333,-0.44393 -0.92333,-0.98652 z m -44.31985,-3.94607 c 0,-0.54258 0.4155,-0.98652 0.92333,-0.98652 0.50783,0 0.92333,0.44394 0.92333,0.98652 0,0.54259 -0.4155,0.98652 -0.92333,0.98652 -0.50783,0 -0.92333,-0.44393 -0.92333,-0.98652 z m 33.23989,0 c 0,-0.54258 0.4155,-0.98652 0.92333,-0.98652 0.50783,0 0.92333,0.44394 0.92333,0.98652 0,0.54259 -0.4155,0.98652 -0.92333,0.98652 -0.50783,0 -0.92333,-0.44393 -0.92333,-0.98652 z m -59.093129,-3.94607 c 0,-0.54258 0.415498,-0.98652 0.92333,-0.98652 0.507831,0 0.923329,0.44394 0.923329,0.98652 0,0.54259 -0.415498,0.98652 -0.923329,0.98652 -0.507832,0 -0.92333,-0.44393 -0.92333,-0.98652 z m 5.539979,0 c 0,-0.54258 0.4155,-0.98652 0.92333,-0.98652 0.50783,0 0.92333,0.44394 0.92333,0.98652 0,0.54259 -0.4155,0.98652 -0.92333,0.98652 -0.50783,0 -0.92333,-0.44393 -0.92333,-0.98652 z m 29.54656,0 c 0,-0.54258 0.4155,-0.98652 0.92333,-0.98652 0.50784,0 0.92333,0.44394 0.92333,0.98652 0,0.54259 -0.41549,0.98652 -0.92333,0.98652 -0.50783,0 -0.92333,-0.44393 -0.92333,-0.98652 z m 14.77329,0 c 0,-0.54258 0.41549,-0.98652 0.92333,-0.98652 0.50783,0 0.92333,0.44394 0.92333,0.98652 0,0.54259 -0.4155,0.98652 -0.92333,0.98652 -0.50784,0 -0.92333,-0.44393 -0.92333,-0.98652 z m 29.54656,0 c 0,-0.54258 0.4155,-0.98652 0.92333,-0.98652 0.50783,0 0.92333,0.44394 0.92333,0.98652 0,0.54259 -0.4155,0.98652 -0.92333,0.98652 -0.50783,0 -0.92333,-0.44393 -0.92333,-0.98652 z m 5.53998,0 c 0,-0.54258 0.4155,-0.98652 0.92333,-0.98652 0.50783,0 0.92333,0.44394 0.92333,0.98652 0,0.54259 -0.4155,0.98652 -0.92333,0.98652 -0.50783,0 -0.92333,-0.44393 -0.92333,-0.98652 z m -89.73936,-3.2644 c -0.81637,-1.41132 -0.506569,-1.74232 0.814346,-0.87008 2.128742,1.40567 2.858011,3.14796 1.317639,3.14796 -0.44789,0 -1.407284,-1.02505 -2.131985,-2.27788 z m 14.94962,0.30485 c 0.62772,-1.08517 1.5568,-1.97304 2.06463,-1.97304 0.50783,0 0.40975,0.88787 -0.21797,1.97304 -0.62771,1.08517 -1.5568,1.97303 -2.06463,1.97303 -0.50783,0 -0.40974,-0.88786 0.21797,-1.97303 z m 64.45677,-0.30485 c -0.81637,-1.41132 -0.50657,-1.74232 0.81434,-0.87008 2.12875,1.40567 2.85802,3.14796 1.31764,3.14796 -0.44789,0 -1.40728,-1.02505 -2.13198,-2.27788 z m 14.94962,0.30485 c 0.62771,-1.08517 1.5568,-1.97304 2.06463,-1.97304 0.50783,0 0.40974,0.88787 -0.21797,1.97304 -0.62772,1.08517 -1.5568,1.97303 -2.06463,1.97303 -0.50783,0 -0.40975,-0.88786 0.21797,-1.97303 z m -90.66269,-4.25092 c -0.81637,-1.41132 -0.506569,-1.74232 0.814346,-0.87008 2.128744,1.40567 2.858014,3.14796 1.317639,3.14796 -0.44789,0 -1.407283,-1.02505 -2.131985,-2.27788 z m 7.56298,0.30485 c 0.62772,-1.08517 1.5568,-1.97304 2.06463,-1.97304 0.50783,0 0.40975,0.88787 -0.21797,1.97304 -0.62771,1.08516 -1.5568,1.97303 -2.06463,1.97303 -0.50783,0 -0.40974,-0.88787 0.21797,-1.97303 z m 29.23879,0.65767 c 0.67711,-0.72344 1.7851,-0.72344 2.46221,0 0.67711,0.72345 0.12311,1.31536 -1.23111,1.31536 -1.35421,0 -1.90821,-0.59191 -1.2311,-1.31536 z m 12.92662,0 c 0.67711,-0.72344 1.7851,-0.72344 2.46221,0 0.67711,0.72345 0.12311,1.31536 -1.2311,1.31536 -1.35422,0 -1.90822,-0.59191 -1.23111,-1.31536 z m 29.678,-0.96252 c -0.81637,-1.41132 -0.50657,-1.74232 0.81434,-0.87008 2.12875,1.40567 2.85802,3.14796 1.31764,3.14796 -0.44789,0 -1.40728,-1.02505 -2.13198,-2.27788 z m 7.56298,0.30485 c 0.62771,-1.08517 1.5568,-1.97304 2.06463,-1.97304 0.50783,0 0.40974,0.88787 -0.21797,1.97304 -0.62772,1.08516 -1.5568,1.97303 -2.06463,1.97303 -0.50783,0 -0.40975,-0.88787 0.21797,-1.97303 z m -93.25634,-0.98652 c 0,-0.54259 0.415499,-0.98652 0.92333,-0.98652 0.507832,0 0.92333,0.44393 0.92333,0.98652 0,0.54258 -0.415498,0.98652 -0.92333,0.98652 -0.507831,0 -0.92333,-0.44394 -0.92333,-0.98652 z m 20.31326,0 c 0,-0.54259 0.4155,-0.98652 0.92333,-0.98652 0.50783,0 0.92333,0.44393 0.92333,0.98652 0,0.54258 -0.4155,0.98652 -0.92333,0.98652 -0.50783,0 -0.92333,-0.44394 -0.92333,-0.98652 z m 59.09313,0 c 0,-0.54259 0.4155,-0.98652 0.92333,-0.98652 0.50783,0 0.92333,0.44393 0.92333,0.98652 0,0.54258 -0.4155,0.98652 -0.92333,0.98652 -0.50783,0 -0.92333,-0.44394 -0.92333,-0.98652 z m 20.31326,0 c 0,-0.54259 0.4155,-0.98652 0.92333,-0.98652 0.50783,0 0.92333,0.44393 0.92333,0.98652 0,0.54258 -0.4155,0.98652 -0.92333,0.98652 -0.50783,0 -0.92333,-0.44394 -0.92333,-0.98652 z M 90.91806,100.9461 c 0,-0.54258 0.415499,-0.986518 0.92333,-0.986518 0.507832,0 0.92333,0.443938 0.92333,0.986518 0,0.54259 -0.415498,0.98652 -0.92333,0.98652 -0.507831,0 -0.92333,-0.44393 -0.92333,-0.98652 z m 13.67361,-1.291367 c -0.81637,-1.411313 -0.50657,-1.742315 0.81435,-0.870078 2.12874,1.405675 2.85801,3.147965 1.31764,3.147965 -0.44789,0 -1.40729,-1.02505 -2.13199,-2.277887 z m 6.63965,1.291367 c 0,-0.54258 0.4155,-0.986518 0.92333,-0.986518 0.50783,0 0.92333,0.443938 0.92333,0.986518 0,0.54259 -0.4155,0.98652 -0.92333,0.98652 -0.50783,0 -0.92333,-0.44393 -0.92333,-0.98652 z m 59.09313,0 c 0,-0.54258 0.4155,-0.986518 0.92333,-0.986518 0.50783,0 0.92333,0.443938 0.92333,0.986518 0,0.54259 -0.4155,0.98652 -0.92333,0.98652 -0.50783,0 -0.92333,-0.44393 -0.92333,-0.98652 z m 13.67361,-1.291367 c -0.81637,-1.411313 -0.50657,-1.742315 0.81435,-0.870078 2.12874,1.405675 2.85801,3.147965 1.31763,3.147965 -0.44789,0 -1.40728,-1.02505 -2.13198,-2.277887 z m 6.63965,1.291367 c 0,-0.54258 0.4155,-0.986518 0.92333,-0.986518 0.50783,0 0.92333,0.443938 0.92333,0.986518 0,0.54259 -0.4155,0.98652 -0.92333,0.98652 -0.50783,0 -0.92333,-0.44393 -0.92333,-0.98652 z M 93.68805,96.013511 c 0.627715,-1.08517 1.556798,-1.973036 2.064629,-1.973036 0.507832,0 0.409746,0.887866 -0.217969,1.973036 -0.627714,1.085169 -1.556797,1.973036 -2.064628,1.973036 -0.507832,0 -0.409746,-0.887867 0.217968,-1.973036 z m 14.59694,-0.30485 c -0.81637,-1.411312 -0.50657,-1.742315 0.81435,-0.870077 2.12874,1.405671 2.85801,3.147963 1.31764,3.147963 -0.44789,0 -1.40729,-1.02505 -2.13199,-2.277886 z m 14.02629,1.291368 c 0,-0.542585 0.4155,-0.986518 0.92333,-0.986518 0.50783,0 0.92333,0.443933 0.92333,0.986518 0,0.542585 -0.4155,0.986518 -0.92333,0.986518 -0.50783,0 -0.92333,-0.443933 -0.92333,-0.986518 z m 5.53998,0 c 0,-0.542585 0.4155,-0.986518 0.92333,-0.986518 0.50784,0 0.92333,0.443933 0.92333,0.986518 0,0.542585 -0.41549,0.986518 -0.92333,0.986518 -0.50783,0 -0.92333,-0.443933 -0.92333,-0.986518 z m 25.85325,0 c 0,-0.542585 0.41549,-0.986518 0.92333,-0.986518 0.50783,0 0.92333,0.443933 0.92333,0.986518 0,0.542585 -0.4155,0.986518 -0.92333,0.986518 -0.50784,0 -0.92333,-0.443933 -0.92333,-0.986518 z m 5.53998,0 c 0,-0.542585 0.4155,-0.986518 0.92333,-0.986518 0.50783,0 0.92333,0.443933 0.92333,0.986518 0,0.542585 -0.4155,0.986518 -0.92333,0.986518 -0.50783,0 -0.92333,-0.443933 -0.92333,-0.986518 z m 13.84995,-0.986518 c 0.62771,-1.08517 1.5568,-1.973036 2.06463,-1.973036 0.50783,0 0.40974,0.887866 -0.21797,1.973036 -0.62772,1.085169 -1.5568,1.973036 -2.06463,1.973036 -0.50783,0 -0.40975,-0.887867 0.21797,-1.973036 z m 14.59694,-0.30485 c -0.81637,-1.411312 -0.50657,-1.742315 0.81435,-0.870077 2.12874,1.405671 2.85801,3.147963 1.31763,3.147963 -0.44789,0 -1.40728,-1.02505 -2.13198,-2.277886 z m -69.07342,-0.681668 c 0,-0.542585 0.4155,-0.986518 0.92333,-0.986518 0.50783,0 0.92333,0.443933 0.92333,0.986518 0,0.542585 -0.4155,0.986518 -0.92333,0.986518 -0.50783,0 -0.92333,-0.443933 -0.92333,-0.986518 z m 12.92662,0 c 0,-0.542585 0.4155,-0.986518 0.92333,-0.986518 0.50784,0 0.92333,0.443933 0.92333,0.986518 0,0.542585 -0.41549,0.986518 -0.92333,0.986518 -0.50783,0 -0.92333,-0.443933 -0.92333,-0.986518 z m 18.46661,0 c 0,-0.542585 0.41549,-0.986518 0.92333,-0.986518 0.50783,0 0.92333,0.443933 0.92333,0.986518 0,0.542585 -0.4155,0.986518 -0.92333,0.986518 -0.50784,0 -0.92333,-0.443933 -0.92333,-0.986518 z m 12.92662,0 c 0,-0.542585 0.4155,-0.986518 0.92333,-0.986518 0.50783,0 0.92333,0.443933 0.92333,0.986518 0,0.542585 -0.4155,0.986518 -0.92333,0.986518 -0.50783,0 -0.92333,-0.443933 -0.92333,-0.986518 z M 98.304701,93.053957 c 0,-0.542585 0.415498,-0.986518 0.92333,-0.986518 0.507831,0 0.923329,0.443933 0.923329,0.986518 0,0.542585 -0.415498,0.986518 -0.923329,0.986518 -0.507832,0 -0.92333,-0.443933 -0.92333,-0.986518 z m 5.539979,0 c 0,-0.542585 0.4155,-0.986518 0.92333,-0.986518 0.50783,0 0.92333,0.443933 0.92333,0.986518 0,0.542585 -0.4155,0.986518 -0.92333,0.986518 -0.50783,0 -0.92333,-0.443933 -0.92333,-0.986518 z m 73.86641,0 c 0,-0.542585 0.4155,-0.986518 0.92333,-0.986518 0.50783,0 0.92333,0.443933 0.92333,0.986518 0,0.542585 -0.4155,0.986518 -0.92333,0.986518 -0.50783,0 -0.92333,-0.443933 -0.92333,-0.986518 z m 5.53998,0 c 0,-0.542585 0.4155,-0.986518 0.92333,-0.986518 0.50783,0 0.92333,0.443933 0.92333,0.986518 0,0.542585 -0.4155,0.986518 -0.92333,0.986518 -0.50783,0 -0.92333,-0.443933 -0.92333,-0.986518 z m -62.03946,-3.264403 c -0.81637,-1.411313 -0.50657,-1.742315 0.81435,-0.870077 2.12874,1.405671 2.85801,3.147962 1.31764,3.147962 -0.44789,0 -1.40728,-1.025049 -2.13199,-2.277885 z m 7.56298,0.30485 c 0.62772,-1.08517 1.5568,-1.973036 2.06463,-1.973036 0.50783,0 0.40975,0.887866 -0.21797,1.973036 -0.62771,1.085169 -1.55679,1.973035 -2.06462,1.973035 -0.50784,0 -0.40975,-0.887866 0.21796,-1.973035 z m 23.83024,-0.30485 c -0.81636,-1.411313 -0.50656,-1.742315 0.81435,-0.870077 1.17259,0.774298 2.13199,1.799345 2.13199,2.277887 0,1.645788 -1.6307,0.866611 -2.94634,-1.40781 z m 7.56299,0.30485 c 0.62771,-1.08517 1.55679,-1.973036 2.06463,-1.973036 0.50783,0 0.40974,0.887866 -0.21797,1.973036 -0.62772,1.085169 -1.5568,1.973035 -2.06463,1.973035 -0.50783,0 -0.40975,-0.887866 0.21797,-1.973035 z m -47.08984,-4.93259 c 0,-0.542585 0.4155,-0.986518 0.92333,-0.986518 0.50783,0 0.92333,0.443933 0.92333,0.986518 0,0.542585 -0.4155,0.986518 -0.92333,0.986518 -0.50783,0 -0.92333,-0.443933 -0.92333,-0.986518 z m 5.53998,0 c 0,-0.542585 0.4155,-0.986518 0.92333,-0.986518 0.50783,0 0.92333,0.443933 0.92333,0.986518 0,0.542585 -0.4155,0.986518 -0.92333,0.986518 -0.50783,0 -0.92333,-0.443933 -0.92333,-0.986518 z m 12.92662,0 c 0,-0.542585 0.4155,-0.986518 0.92333,-0.986518 0.50784,0 0.92333,0.443933 0.92333,0.986518 0,0.542585 -0.41549,0.986518 -0.92333,0.986518 -0.50783,0 -0.92333,-0.443933 -0.92333,-0.986518 z m 5.53998,0 c 0,-0.542585 0.4155,-0.986518 0.92333,-0.986518 0.50784,0 0.92333,0.443933 0.92333,0.986518 0,0.542585 -0.41549,0.986518 -0.92333,0.986518 -0.50783,0 -0.92333,-0.443933 -0.92333,-0.986518 z m 7.38665,0 c 0,-0.542585 0.41549,-0.986518 0.92333,-0.986518 0.50783,0 0.92333,0.443933 0.92333,0.986518 0,0.542585 -0.4155,0.986518 -0.92333,0.986518 -0.50784,0 -0.92333,-0.443933 -0.92333,-0.986518 z m 5.53998,0 c 0,-0.542585 0.41549,-0.986518 0.92333,-0.986518 0.50783,0 0.92333,0.443933 0.92333,0.986518 0,0.542585 -0.4155,0.986518 -0.92333,0.986518 -0.50784,0 -0.92333,-0.443933 -0.92333,-0.986518 z m 12.92662,0 c 0,-0.542585 0.4155,-0.986518 0.92333,-0.986518 0.50783,0 0.92333,0.443933 0.92333,0.986518 0,0.542585 -0.4155,0.986518 -0.92333,0.986518 -0.50783,0 -0.92333,-0.443933 -0.92333,-0.986518 z m 5.53998,0 c 0,-0.542585 0.4155,-0.986518 0.92333,-0.986518 0.50783,0 0.92333,0.443933 0.92333,0.986518 0,0.542585 -0.4155,0.986518 -0.92333,0.986518 -0.50783,0 -0.92333,-0.443933 -0.92333,-0.986518 z m -55.39981,-7.892143 c 0,-0.542585 0.4155,-0.986518 0.92333,-0.986518 0.50783,0 0.92333,0.443933 0.92333,0.986518 0,0.542585 -0.4155,0.986518 -0.92333,0.986518 -0.50783,0 -0.92333,-0.443933 -0.92333,-0.986518 z m 5.53998,0 c 0,-0.542585 0.4155,-0.986518 0.92333,-0.986518 0.50783,0 0.92333,0.443933 0.92333,0.986518 0,0.542585 -0.4155,0.986518 -0.92333,0.986518 -0.50783,0 -0.92333,-0.443933 -0.92333,-0.986518 z m 12.92662,0 c 0,-0.542585 0.4155,-0.986518 0.92333,-0.986518 0.50784,0 0.92333,0.443933 0.92333,0.986518 0,0.542585 -0.41549,0.986518 -0.92333,0.986518 -0.50783,0 -0.92333,-0.443933 -0.92333,-0.986518 z m 5.53998,0 c 0,-0.542585 0.4155,-0.986518 0.92333,-0.986518 0.50784,0 0.92333,0.443933 0.92333,0.986518 0,0.542585 -0.41549,0.986518 -0.92333,0.986518 -0.50783,0 -0.92333,-0.443933 -0.92333,-0.986518 z m 7.38665,0 c 0,-0.542585 0.41549,-0.986518 0.92333,-0.986518 0.50783,0 0.92333,0.443933 0.92333,0.986518 0,0.542585 -0.4155,0.986518 -0.92333,0.986518 -0.50784,0 -0.92333,-0.443933 -0.92333,-0.986518 z m 5.53998,0 c 0,-0.542585 0.41549,-0.986518 0.92333,-0.986518 0.50783,0 0.92333,0.443933 0.92333,0.986518 0,0.542585 -0.4155,0.986518 -0.92333,0.986518 -0.50784,0 -0.92333,-0.443933 -0.92333,-0.986518 z m 12.92662,0 c 0,-0.542585 0.4155,-0.986518 0.92333,-0.986518 0.50783,0 0.92333,0.443933 0.92333,0.986518 0,0.542585 -0.4155,0.986518 -0.92333,0.986518 -0.50783,0 -0.92333,-0.443933 -0.92333,-0.986518 z m 5.53998,0 c 0,-0.542585 0.4155,-0.986518 0.92333,-0.986518 0.50783,0 0.92333,0.443933 0.92333,0.986518 0,0.542585 -0.4155,0.986518 -0.92333,0.986518 -0.50783,0 -0.92333,-0.443933 -0.92333,-0.986518 z M 120.46462,73.3236 c 0,-0.542585 0.4155,-0.986518 0.92333,-0.986518 0.50783,0 0.92333,0.443933 0.92333,0.986518 0,0.542585 -0.4155,0.986518 -0.92333,0.986518 -0.50783,0 -0.92333,-0.443933 -0.92333,-0.986518 z m 8.13363,-1.291369 c -0.81637,-1.411311 -0.50657,-1.742313 0.81435,-0.870075 2.12874,1.40567 2.85801,3.147962 1.31764,3.147962 -0.44789,0 -1.40728,-1.025049 -2.13199,-2.277887 z m 23.2596,1.291369 c 0,-0.542585 0.41549,-0.986518 0.92333,-0.986518 0.50783,0 0.92333,0.443933 0.92333,0.986518 0,0.542585 -0.4155,0.986518 -0.92333,0.986518 -0.50784,0 -0.92333,-0.443933 -0.92333,-0.986518 z m 8.13363,-1.291369 c -0.81637,-1.411311 -0.50657,-1.742313 0.81434,-0.870075 2.12874,1.40567 2.85801,3.147962 1.31764,3.147962 -0.44789,0 -1.40728,-1.025049 -2.13198,-2.277887 z M 117.69463,68.39101 c 0.62772,-1.085169 1.5568,-1.973035 2.06463,-1.973035 0.50783,0 0.40975,0.887866 -0.21797,1.973035 -0.62771,1.08517 -1.55679,1.973036 -2.06463,1.973036 -0.50783,0 -0.40974,-0.887866 0.21797,-1.973036 z m 14.59694,-0.30485 c -0.81637,-1.411311 -0.50657,-1.742314 0.81435,-0.870076 2.12874,1.405671 2.85801,3.147962 1.31764,3.147962 -0.44789,0 -1.40728,-1.025049 -2.13199,-2.277886 z m 16.79629,0.30485 c 0.62771,-1.085169 1.55679,-1.973035 2.06462,-1.973035 0.50784,0 0.40975,0.887866 -0.21796,1.973035 -0.62772,1.08517 -1.5568,1.973036 -2.06463,1.973036 -0.50783,0 -0.40975,-0.887866 0.21797,-1.973036 z m 14.59694,-0.30485 c -0.81637,-1.411311 -0.50657,-1.742314 0.81434,-0.870076 1.17259,0.774297 2.13199,1.799346 2.13199,2.277887 0,1.645787 -1.6307,0.866611 -2.94633,-1.407811 z m -41.37352,-2.654703 c 0,-0.542585 0.4155,-0.986518 0.92333,-0.986518 0.50783,0 0.92333,0.443933 0.92333,0.986518 0,0.542585 -0.4155,0.986518 -0.92333,0.986518 -0.50783,0 -0.92333,-0.443933 -0.92333,-0.986518 z m 5.53998,0 c 0,-0.542585 0.4155,-0.986518 0.92333,-0.986518 0.50784,0 0.92333,0.443933 0.92333,0.986518 0,0.542585 -0.41549,0.986518 -0.92333,0.986518 -0.50783,0 -0.92333,-0.443933 -0.92333,-0.986518 z m 25.85325,0 c 0,-0.542585 0.41549,-0.986518 0.92333,-0.986518 0.50783,0 0.92333,0.443933 0.92333,0.986518 0,0.542585 -0.4155,0.986518 -0.92333,0.986518 -0.50784,0 -0.92333,-0.443933 -0.92333,-0.986518 z m 5.53998,0 c 0,-0.542585 0.4155,-0.986518 0.92333,-0.986518 0.50783,0 0.92333,0.443933 0.92333,0.986518 0,0.542585 -0.4155,0.986518 -0.92333,0.986518 -0.50783,0 -0.92333,-0.443933 -0.92333,-0.986518 z"
         id="path973" />
      <path
         style="fill:#a3a3a3;fill-opacity:1;stroke-width:1.9088"
         d="m 116.42505,161.74892 c 1.33306,-0.56996 2.92581,-0.49986 3.53944,0.15577 0.61362,0.65562 -0.47706,1.12195 -2.42375,1.03628 -2.15125,-0.0947 -2.58883,-0.5622 -1.11569,-1.19205 z m 48.01317,0 c 1.33306,-0.56996 2.9258,-0.49986 3.53943,0.15577 0.61363,0.65562 -0.47705,1.12195 -2.42374,1.03628 -2.15125,-0.0947 -2.58883,-0.5622 -1.11569,-1.19205 z m -34.7403,-1.61175 c 0,-0.54258 0.4155,-0.98652 0.92333,-0.98652 0.50784,0 0.92333,0.44394 0.92333,0.98652 0,0.54259 -0.41549,0.98652 -0.92333,0.98652 -0.50783,0 -0.92333,-0.44393 -0.92333,-0.98652 z m 20.92882,-0.32884 c 0.67711,-0.72344 1.7851,-0.72344 2.46221,0 0.67711,0.72345 0.12311,1.31536 -1.2311,1.31536 -1.35422,0 -1.90822,-0.59191 -1.23111,-1.31536 z m 21.54437,0.57043 c 0,-0.40971 1.45424,-1.96348 3.23165,-3.45281 2.92891,-2.4542 2.99423,-2.38442 0.69722,0.74493 -2.41242,3.28658 -3.92887,4.33176 -3.92887,2.70788 z M 107.538,158.16414 c 0,-0.54259 0.4155,-0.98652 0.92333,-0.98652 0.50783,0 0.92333,0.44393 0.92333,0.98652 0,0.54258 -0.4155,0.98651 -0.92333,0.98651 -0.50783,0 -0.92333,-0.44393 -0.92333,-0.98651 z m 17.2355,-2.30188 c 0.67711,-0.72344 1.7851,-0.72344 2.46221,0 0.67711,0.72345 0.12311,1.31536 -1.23111,1.31536 -1.35421,0 -1.90821,-0.59191 -1.2311,-1.31536 z m 32.62433,0.32884 c 0,-0.54258 0.4155,-0.98652 0.92333,-0.98652 0.50783,0 0.92333,0.44394 0.92333,0.98652 0,0.54259 -0.4155,0.98652 -0.92333,0.98652 -0.50783,0 -0.92333,-0.44393 -0.92333,-0.98652 z m -48.01317,-3.94607 c 0,-0.54259 0.4155,-0.98652 0.92333,-0.98652 0.50783,0 0.92333,0.44393 0.92333,0.98652 0,0.54258 -0.4155,0.98652 -0.92333,0.98652 -0.50783,0 -0.92333,-0.44394 -0.92333,-0.98652 z m 62.78645,0 c 0,-0.54259 0.4155,-0.98652 0.92333,-0.98652 0.50783,0 0.92333,0.44393 0.92333,0.98652 0,0.54258 -0.4155,0.98652 -0.92333,0.98652 -0.50783,0 -0.92333,-0.44394 -0.92333,-0.98652 z m -68.18064,-4.11049 c 0.0886,-2.29848 0.52619,-2.766 1.11569,-1.19204 0.53345,1.42428 0.46784,3.12602 -0.14579,3.78165 -0.61363,0.65562 -1.05008,-0.5097 -0.9699,-2.58961 z m 73.72062,2.13745 c 0,-0.54258 0.4155,-0.98651 0.92333,-0.98651 0.50783,0 0.92333,0.44393 0.92333,0.98651 0,0.54259 -0.4155,0.98652 -0.92333,0.98652 -0.50783,0 -0.92333,-0.44393 -0.92333,-0.98652 z m -35.08654,-3.94607 c 0,-0.54258 0.41549,-0.98652 0.92333,-0.98652 0.50783,0 0.92333,0.44394 0.92333,0.98652 0,0.54259 -0.4155,0.98652 -0.92333,0.98652 -0.50784,0 -0.92333,-0.44393 -0.92333,-0.98652 z m 35.08654,0 c 0,-0.54258 0.4155,-0.98652 0.92333,-0.98652 0.50783,0 0.92333,0.44394 0.92333,0.98652 0,0.54259 -0.4155,0.98652 -0.92333,0.98652 -0.50783,0 -0.92333,-0.44393 -0.92333,-0.98652 z m -68.32643,-1.97303 c 0,-0.54259 0.4155,-0.98652 0.92333,-0.98652 0.50783,0 0.92333,0.44393 0.92333,0.98652 0,0.54258 -0.4155,0.98651 -0.92333,0.98651 -0.50783,0 -0.92333,-0.44393 -0.92333,-0.98651 z m -3.69332,-3.94608 c 0,-0.54258 0.4155,-0.98651 0.92333,-0.98651 0.50783,0 0.92333,0.44393 0.92333,0.98651 0,0.54259 -0.4155,0.98652 -0.92333,0.98652 -0.50783,0 -0.92333,-0.44393 -0.92333,-0.98652 z m 70.17309,0 c 0,-0.54258 0.4155,-0.98651 0.92333,-0.98651 0.50783,0 0.92333,0.44393 0.92333,0.98651 0,0.54259 -0.4155,0.98652 -0.92333,0.98652 -0.50783,0 -0.92333,-0.44393 -0.92333,-0.98652 z m -64.63311,-1.97303 c 0,-0.54259 0.4155,-0.98652 0.92333,-0.98652 0.50783,0 0.92333,0.44393 0.92333,0.98652 0,0.54258 -0.4155,0.98652 -0.92333,0.98652 -0.50783,0 -0.92333,-0.44394 -0.92333,-0.98652 z m 27.6999,0 c 0,-0.54259 0.4155,-0.98652 0.92333,-0.98652 0.50784,0 0.92333,0.44393 0.92333,0.98652 0,0.54258 -0.41549,0.98652 -0.92333,0.98652 -0.50783,0 -0.92333,-0.44394 -0.92333,-0.98652 z m 5.53999,0 c 0,-0.54259 0.41549,-0.98652 0.92333,-0.98652 0.50783,0 0.92333,0.44393 0.92333,0.98652 0,0.54258 -0.4155,0.98652 -0.92333,0.98652 -0.50784,0 -0.92333,-0.44394 -0.92333,-0.98652 z m 25.85324,0 c 0,-0.54259 0.4155,-0.98652 0.92333,-0.98652 0.50783,0 0.92333,0.44393 0.92333,0.98652 0,0.54258 -0.4155,0.98652 -0.92333,0.98652 -0.50783,0 -0.92333,-0.44394 -0.92333,-0.98652 z m -38.77987,-1.97304 c 0,-0.54258 0.4155,-0.98651 0.92333,-0.98651 0.50784,0 0.92333,0.44393 0.92333,0.98651 0,0.54259 -0.41549,0.98652 -0.92333,0.98652 -0.50783,0 -0.92333,-0.44393 -0.92333,-0.98652 z m 20.31327,0 c 0,-0.54258 0.41549,-0.98651 0.92333,-0.98651 0.50783,0 0.92333,0.44393 0.92333,0.98651 0,0.54259 -0.4155,0.98652 -0.92333,0.98652 -0.50784,0 -0.92333,-0.44393 -0.92333,-0.98652 z m -12.92663,-3.94607 c 0,-0.54258 0.4155,-0.98652 0.92333,-0.98652 0.50784,0 0.92333,0.44394 0.92333,0.98652 0,0.54259 -0.41549,0.98652 -0.92333,0.98652 -0.50783,0 -0.92333,-0.44393 -0.92333,-0.98652 z m 5.53999,0 c 0,-0.54258 0.41549,-0.98652 0.92333,-0.98652 0.50783,0 0.92333,0.44394 0.92333,0.98652 0,0.54259 -0.4155,0.98652 -0.92333,0.98652 -0.50784,0 -0.92333,-0.44393 -0.92333,-0.98652 z m -35.08655,-1.97303 c 0,-0.54259 0.4155,-0.98652 0.92333,-0.98652 0.50783,0 0.92333,0.44393 0.92333,0.98652 0,0.54258 -0.4155,0.98651 -0.92333,0.98651 -0.50783,0 -0.92333,-0.44393 -0.92333,-0.98651 z m 62.78645,0 c 0,-0.54259 0.4155,-0.98652 0.92333,-0.98652 0.50783,0 0.92333,0.44393 0.92333,0.98652 0,0.54258 -0.4155,0.98651 -0.92333,0.98651 -0.50783,0 -0.92333,-0.44393 -0.92333,-0.98651 z m -60.93979,-3.94608 c 0,-0.54258 0.4155,-0.98651 0.92333,-0.98651 0.50783,0 0.92333,0.44393 0.92333,0.98651 0,0.54259 -0.4155,0.98652 -0.92333,0.98652 -0.50783,0 -0.92333,-0.44393 -0.92333,-0.98652 z m 5.53998,0 c 0,-0.54258 0.4155,-0.98651 0.92333,-0.98651 0.50783,0 0.92333,0.44393 0.92333,0.98651 0,0.54259 -0.4155,0.98652 -0.92333,0.98652 -0.50783,0 -0.92333,-0.44393 -0.92333,-0.98652 z m 48.01317,0 c 0,-0.54258 0.4155,-0.98651 0.92333,-0.98651 0.50783,0 0.92333,0.44393 0.92333,0.98651 0,0.54259 -0.4155,0.98652 -0.92333,0.98652 -0.50783,0 -0.92333,-0.44393 -0.92333,-0.98652 z m 5.53998,0 c 0,-0.54258 0.4155,-0.98651 0.92333,-0.98651 0.50783,0 0.92333,0.44393 0.92333,0.98651 0,0.54259 -0.4155,0.98652 -0.92333,0.98652 -0.50783,0 -0.92333,-0.44393 -0.92333,-0.98652 z m -52.62982,-8.87866 c 1.83833,-2.17034 3.75791,-3.94607 4.26574,-3.94607 0.50783,0 -0.58075,1.77573 -2.41908,3.94607 -1.83832,2.17034 -3.7579,3.94608 -4.26574,3.94608 -0.50783,0 0.58076,-1.77574 2.41908,-3.94608 z m 45.99105,-0.49325 -3.51786,-4.43934 4.15498,3.75861 c 3.90466,3.53217 4.99566,5.12006 3.51787,5.12006 -0.35042,0 -2.22016,-1.9977 -4.15499,-4.43933 z m -37.68108,-0.49326 c 0,-0.54259 0.4155,-0.98652 0.92333,-0.98652 0.50784,0 0.92333,0.44393 0.92333,0.98652 0,0.54258 -0.41549,0.98651 -0.92333,0.98651 -0.50783,0 -0.92333,-0.44393 -0.92333,-0.98651 z m 29.54657,0 c 0,-0.54259 0.41549,-0.98652 0.92333,-0.98652 0.50783,0 0.92333,0.44393 0.92333,0.98652 0,0.54258 -0.4155,0.98651 -0.92333,0.98651 -0.50784,0 -0.92333,-0.44393 -0.92333,-0.98651 z m -54.78426,-2.30188 c 0.67711,-0.72344 1.78511,-0.72344 2.46222,0 0.67711,0.72345 0.12311,1.31536 -1.23111,1.31536 -1.35422,0 -1.90821,-0.59191 -1.23111,-1.31536 z m 30.77767,0.32884 c 0,-0.54258 0.4155,-0.98652 0.92333,-0.98652 0.50784,0 0.92333,0.44394 0.92333,0.98652 0,0.54259 -0.41549,0.98652 -0.92333,0.98652 -0.50783,0 -0.92333,-0.44393 -0.92333,-0.98652 z m 18.46661,0 c 0,-0.54258 0.41549,-0.98652 0.92333,-0.98652 0.50783,0 0.92333,0.44394 0.92333,0.98652 0,0.54259 -0.4155,0.98652 -0.92333,0.98652 -0.50784,0 -0.92333,-0.44393 -0.92333,-0.98652 z m 30.16211,-0.32884 c 0.67711,-0.72344 1.78511,-0.72344 2.46222,0 0.6771,0.72345 0.12311,1.31536 -1.23111,1.31536 -1.35422,0 -1.90822,-0.59191 -1.23111,-1.31536 z m -56.01536,-1.6442 c 0,-0.54258 0.4155,-0.98651 0.92333,-0.98651 0.50783,0 0.92333,0.44393 0.92333,0.98651 0,0.54259 -0.4155,0.98652 -0.92333,0.98652 -0.50783,0 -0.92333,-0.44393 -0.92333,-0.98652 z m 33.23989,0 c 0,-0.54258 0.4155,-0.98651 0.92333,-0.98651 0.50783,0 0.92333,0.44393 0.92333,0.98651 0,0.54259 -0.4155,0.98652 -0.92333,0.98652 -0.50783,0 -0.92333,-0.44393 -0.92333,-0.98652 z m -29.54657,-1.97303 c 0,-0.54259 0.4155,-0.98652 0.92333,-0.98652 0.50784,0 0.92333,0.44393 0.92333,0.98652 0,0.54258 -0.41549,0.98652 -0.92333,0.98652 -0.50783,0 -0.92333,-0.44394 -0.92333,-0.98652 z m 25.85325,0 c 0,-0.54259 0.41549,-0.98652 0.92333,-0.98652 0.50783,0 0.92333,0.44393 0.92333,0.98652 0,0.54258 -0.4155,0.98652 -0.92333,0.98652 -0.50784,0 -0.92333,-0.44394 -0.92333,-0.98652 z m -16.00439,-2.30188 c 0.67711,-0.72344 1.7851,-0.72344 2.46221,0 0.67711,0.72345 0.12311,1.31536 -1.23111,1.31536 -1.35421,0 -1.90821,-0.59191 -1.2311,-1.31536 z m 5.53998,0 c 0.67711,-0.72344 1.7851,-0.72344 2.46221,0 0.67711,0.72345 0.12311,1.31536 -1.2311,1.31536 -1.35422,0 -1.90822,-0.59191 -1.23111,-1.31536 z m -52.32204,-4.60375 c 0,-1.44689 0.553998,-2.0388 1.231107,-1.31535 0.677108,0.72344 0.677108,1.90726 0,2.63071 -0.677109,0.72345 -1.231107,0.13154 -1.231107,-1.31536 z m 20.31326,0 c 0,-1.44689 0.554,-2.0388 1.23111,-1.31535 0.67711,0.72344 0.67711,1.90726 0,2.63071 -0.67711,0.72345 -1.23111,0.13154 -1.23111,-1.31536 z m 59.09313,0 c 0,-1.44689 0.554,-2.0388 1.23111,-1.31535 0.6771,0.72344 0.6771,1.90726 0,2.63071 -0.67711,0.72345 -1.23111,0.13154 -1.23111,-1.31536 z m 20.31326,0 c 0,-1.44689 0.554,-2.0388 1.23111,-1.31535 0.6771,0.72344 0.6771,1.90726 0,2.63071 -0.67711,0.72345 -1.23111,0.13154 -1.23111,-1.31536 z M 97.381371,99.959582 c 0.627714,-1.085169 1.556797,-1.973035 2.064629,-1.973035 0.507831,0 0.409745,0.887866 -0.217969,1.973035 -0.627715,1.085168 -1.556798,1.973038 -2.064629,1.973038 -0.507832,0 -0.409746,-0.88787 0.217969,-1.973038 z m 79.406389,0 c 0.62771,-1.085169 1.5568,-1.973035 2.06463,-1.973035 0.50783,0 0.40974,0.887866 -0.21797,1.973035 -0.62772,1.085168 -1.5568,1.973038 -2.06463,1.973038 -0.50783,0 -0.40975,-0.88787 0.21797,-1.973038 z M 124.7735,96.671189 c 0.67711,-0.723445 1.7851,-0.723445 2.46221,0 0.67711,0.723447 0.12311,1.315358 -1.23111,1.315358 -1.35421,0 -1.90821,-0.591911 -1.2311,-1.315358 z m 31.39322,0 c 0.67711,-0.723445 1.7851,-0.723445 2.46221,0 0.67711,0.723447 0.12311,1.315358 -1.2311,1.315358 -1.35422,0 -1.90822,-0.591911 -1.23111,-1.315358 z m -55.39981,-3.946072 c 0.67711,-0.723445 1.78511,-0.723445 2.46222,0 0.67711,0.723447 0.12311,1.315358 -1.23111,1.315358 -1.35422,0 -1.90821,-0.591911 -1.23111,-1.315358 z m 16.00439,0.32884 c 0,-0.542585 0.4155,-0.986518 0.92333,-0.986518 0.50783,0 0.92333,0.443933 0.92333,0.986518 0,0.542585 -0.4155,0.986518 -0.92333,0.986518 -0.50783,0 -0.92333,-0.443933 -0.92333,-0.986518 z m 16.61994,0 c 0,-0.542585 0.4155,-0.986518 0.92333,-0.986518 0.50784,0 0.92333,0.443933 0.92333,0.986518 0,0.542585 -0.41549,0.986518 -0.92333,0.986518 -0.50783,0 -0.92333,-0.443933 -0.92333,-0.986518 z m 14.77329,0 c 0,-0.542585 0.41549,-0.986518 0.92333,-0.986518 0.50783,0 0.92333,0.443933 0.92333,0.986518 0,0.542585 -0.4155,0.986518 -0.92333,0.986518 -0.50784,0 -0.92333,-0.443933 -0.92333,-0.986518 z m 16.61994,0 c 0,-0.542585 0.4155,-0.986518 0.92333,-0.986518 0.50783,0 0.92333,0.443933 0.92333,0.986518 0,0.542585 -0.4155,0.986518 -0.92333,0.986518 -0.50783,0 -0.92333,-0.443933 -0.92333,-0.986518 z m 15.38883,-0.32884 c 0.67711,-0.723445 1.78511,-0.723445 2.46222,0 0.6771,0.723447 0.12311,1.315358 -1.23111,1.315358 -1.35422,0 -1.90822,-0.591911 -1.23111,-1.315358 z m -65.24866,-3.617231 c 0,-0.542585 0.4155,-0.986518 0.92333,-0.986518 0.50783,0 0.92333,0.443933 0.92333,0.986518 0,0.542585 -0.4155,0.986518 -0.92333,0.986518 -0.50783,0 -0.92333,-0.443933 -0.92333,-0.986518 z m 20.31326,0 c 0,-0.542585 0.4155,-0.986518 0.92333,-0.986518 0.50784,0 0.92333,0.443933 0.92333,0.986518 0,0.542585 -0.41549,0.986518 -0.92333,0.986518 -0.50783,0 -0.92333,-0.443933 -0.92333,-0.986518 z m 11.07997,0 c 0,-0.542585 0.41549,-0.986518 0.92333,-0.986518 0.50783,0 0.92333,0.443933 0.92333,0.986518 0,0.542585 -0.4155,0.986518 -0.92333,0.986518 -0.50784,0 -0.92333,-0.443933 -0.92333,-0.986518 z m 20.31326,0 c 0,-0.542585 0.4155,-0.986518 0.92333,-0.986518 0.50783,0 0.92333,0.443933 0.92333,0.986518 0,0.542585 -0.4155,0.986518 -0.92333,0.986518 -0.50783,0 -0.92333,-0.443933 -0.92333,-0.986518 z M 118.61796,87.13485 c 0,-0.542585 0.4155,-0.986518 0.92333,-0.986518 0.50783,0 0.92333,0.443933 0.92333,0.986518 0,0.542585 -0.4155,0.986518 -0.92333,0.986518 -0.50783,0 -0.92333,-0.443933 -0.92333,-0.986518 z m 12.92662,0 c 0,-0.542585 0.4155,-0.986518 0.92333,-0.986518 0.50784,0 0.92333,0.443933 0.92333,0.986518 0,0.542585 -0.41549,0.986518 -0.92333,0.986518 -0.50783,0 -0.92333,-0.443933 -0.92333,-0.986518 z m 18.46661,0 c 0,-0.542585 0.41549,-0.986518 0.92333,-0.986518 0.50783,0 0.92333,0.443933 0.92333,0.986518 0,0.542585 -0.4155,0.986518 -0.92333,0.986518 -0.50784,0 -0.92333,-0.443933 -0.92333,-0.986518 z m 12.92662,0 c 0,-0.542585 0.4155,-0.986518 0.92333,-0.986518 0.50783,0 0.92333,0.443933 0.92333,0.986518 0,0.542585 -0.4155,0.986518 -0.92333,0.986518 -0.50783,0 -0.92333,-0.443933 -0.92333,-0.986518 z m -49.71404,-6.083527 c 0.0886,-2.298474 0.52619,-2.765997 1.11569,-1.192042 0.53345,1.424285 0.46784,3.126028 -0.14579,3.781652 -0.61363,0.655622 -1.05009,-0.509701 -0.96991,-2.58961 z m 23.86079,2.137456 c 0,-0.542585 0.4155,-0.986518 0.92333,-0.986518 0.50784,0 0.92333,0.443933 0.92333,0.986518 0,0.542584 -0.41549,0.986517 -0.92333,0.986517 -0.50783,0 -0.92333,-0.443933 -0.92333,-0.986517 z m 7.53243,-2.137456 c 0.0886,-2.298474 0.52619,-2.765997 1.11569,-1.192042 0.53345,1.424285 0.46784,3.126028 -0.14579,3.781652 -0.61363,0.655622 -1.05009,-0.509701 -0.9699,-2.58961 z m 23.8608,2.137456 c 0,-0.542585 0.4155,-0.986518 0.92333,-0.986518 0.50783,0 0.92333,0.443933 0.92333,0.986518 0,0.542584 -0.4155,0.986517 -0.92333,0.986517 -0.50783,0 -0.92333,-0.443933 -0.92333,-0.986517 z m -31.39323,-3.946072 c 0,-0.542585 0.4155,-0.986518 0.92333,-0.986518 0.50784,0 0.92333,0.443933 0.92333,0.986518 0,0.542585 -0.41549,0.986518 -0.92333,0.986518 -0.50783,0 -0.92333,-0.443933 -0.92333,-0.986518 z m 31.39323,0 c 0,-0.542585 0.4155,-0.986518 0.92333,-0.986518 0.50783,0 0.92333,0.443933 0.92333,0.986518 0,0.542585 -0.4155,0.986518 -0.92333,0.986518 -0.50783,0 -0.92333,-0.443933 -0.92333,-0.986518 z m -49.85983,-3.946071 c 0,-0.542585 0.4155,-0.986518 0.92333,-0.986518 0.50783,0 0.92333,0.443933 0.92333,0.986518 0,0.542584 -0.4155,0.986517 -0.92333,0.986517 -0.50783,0 -0.92333,-0.443933 -0.92333,-0.986517 z m 12.92662,0 c 0,-0.542585 0.4155,-0.986518 0.92333,-0.986518 0.50784,0 0.92333,0.443933 0.92333,0.986518 0,0.542584 -0.41549,0.986517 -0.92333,0.986517 -0.50783,0 -0.92333,-0.443933 -0.92333,-0.986517 z m 18.46661,0 c 0,-0.542585 0.41549,-0.986518 0.92333,-0.986518 0.50783,0 0.92333,0.443933 0.92333,0.986518 0,0.542584 -0.4155,0.986517 -0.92333,0.986517 -0.50784,0 -0.92333,-0.443933 -0.92333,-0.986517 z m 12.92662,0 c 0,-0.542585 0.4155,-0.986518 0.92333,-0.986518 0.50783,0 0.92333,0.443933 0.92333,0.986518 0,0.542584 -0.4155,0.986517 -0.92333,0.986517 -0.50783,0 -0.92333,-0.443933 -0.92333,-0.986517 z M 114.92464,73.3236 c 0,-0.542585 0.4155,-0.986518 0.92333,-0.986518 0.50783,0 0.92333,0.443933 0.92333,0.986518 0,0.542585 -0.4155,0.986518 -0.92333,0.986518 -0.50783,0 -0.92333,-0.443933 -0.92333,-0.986518 z m 20.31326,0 c 0,-0.542585 0.4155,-0.986518 0.92333,-0.986518 0.50784,0 0.92333,0.443933 0.92333,0.986518 0,0.542585 -0.41549,0.986518 -0.92333,0.986518 -0.50783,0 -0.92333,-0.443933 -0.92333,-0.986518 z m 11.07997,0 c 0,-0.542585 0.41549,-0.986518 0.92333,-0.986518 0.50783,0 0.92333,0.443933 0.92333,0.986518 0,0.542585 -0.4155,0.986518 -0.92333,0.986518 -0.50784,0 -0.92333,-0.443933 -0.92333,-0.986518 z m 20.31326,0 c 0,-0.542585 0.4155,-0.986518 0.92333,-0.986518 0.50783,0 0.92333,0.443933 0.92333,0.986518 0,0.542585 -0.4155,0.986518 -0.92333,0.986518 -0.50783,0 -0.92333,-0.443933 -0.92333,-0.986518 z m -44.31985,-1.973036 c 0,-0.542585 0.4155,-0.986518 0.92333,-0.986518 0.50783,0 0.92333,0.443933 0.92333,0.986518 0,0.542585 -0.4155,0.986518 -0.92333,0.986518 -0.50783,0 -0.92333,-0.443933 -0.92333,-0.986518 z m 31.39323,0 c 0,-0.542585 0.41549,-0.986518 0.92333,-0.986518 0.50783,0 0.92333,0.443933 0.92333,0.986518 0,0.542585 -0.4155,0.986518 -0.92333,0.986518 -0.50784,0 -0.92333,-0.443933 -0.92333,-0.986518 z M 124.7735,65.102618 c 0.67711,-0.723447 1.7851,-0.723447 2.46221,0 0.67711,0.723446 0.12311,1.315357 -1.23111,1.315357 -1.35421,0 -1.90821,-0.591911 -1.2311,-1.315357 z m 31.39322,0 c 0.67711,-0.723447 1.7851,-0.723447 2.46221,0 0.67711,0.723446 0.12311,1.315357 -1.2311,1.315357 -1.35422,0 -1.90822,-0.591911 -1.23111,-1.315357 z"
         id="path971" />
      <path
         style="fill:#8c8c8c;fill-opacity:1;stroke-width:1.9088"
         d="m 108.44727,157.16102 c -3.78689,-4.47083 -3.38844,-13.09937 1.09257,-23.65983 7.18072,-16.92295 16.6249,-23.95829 32.16137,-23.95829 16.418,0 25.82394,7.62343 33.14196,26.86123 2.35562,6.19251 3.87477,12.92683 3.37588,14.96515 -1.93784,7.91743 -5.43071,8.76245 -36.8154,8.90665 -25.82164,0.11863 -30.60004,-0.333 -32.95638,-3.11491 z m 63.28403,-2.65254 c 1.25756,-0.8304 2.27835,-3.45512 2.26843,-5.83271 -0.027,-6.46871 -8.0399,-23.37725 -13.73629,-28.98583 -4.39486,-4.32711 -6.67339,-4.93259 -18.56223,-4.93259 -11.88883,0 -14.16736,0.60548 -18.56222,4.93259 -5.58655,5.50043 -13.70849,22.47458 -13.73629,28.70767 -0.01,2.2246 0.79897,4.91764 1.79753,5.98454 2.1273,2.27288 57.10657,2.38763 60.53107,0.12633 z m -30.95342,-13.11515 c 0,-2.63071 -1.2311,-3.94607 -3.69332,-3.94607 -2.03132,0 -3.69332,-0.88786 -3.69332,-1.97303 0,-1.08517 1.662,-1.97304 3.69332,-1.97304 2.46222,0 3.69332,-1.31536 3.69332,-3.94607 0,-2.17034 0.831,-3.94607 1.84667,-3.94607 1.01566,0 1.84666,1.77573 1.84666,3.94607 0,2.63071 1.2311,3.94607 3.69332,3.94607 2.03132,0 3.69332,0.88787 3.69332,1.97304 0,1.08517 -1.662,1.97303 -3.69332,1.97303 -2.46222,0 -3.69332,1.31536 -3.69332,3.94607 0,2.17034 -0.831,3.94607 -1.84666,3.94607 -1.01567,0 -1.84667,-1.77573 -1.84667,-3.94607 z M 94.980712,111.40319 c -2.856632,-3.05212 -2.856632,-11.942948 0,-14.995072 2.856632,-3.052125 11.177988,-3.052125 14.034618,0 2.85663,3.052124 2.85663,11.942952 0,14.995072 -2.85663,3.05212 -11.177986,3.05212 -14.034618,0 z m 11.633958,-7.49754 c 0,-3.61603 -1.1112,-5.101176 -4.16324,-5.564227 -4.53744,-0.688414 -7.114549,3.542787 -5.275887,8.662167 0.667388,1.85821 2.778687,2.84517 5.275887,2.46629 3.05204,-0.46305 4.16324,-1.94819 4.16324,-5.56423 z m 67.77243,7.49754 c -1.2188,-1.3022 -2.21599,-4.6761 -2.21599,-7.49754 0,-2.82144 0.99719,-6.195328 2.21599,-7.497532 2.85663,-3.052125 11.17799,-3.052125 14.03462,0 1.21879,1.302204 2.21599,4.676092 2.21599,7.497532 0,2.82144 -0.9972,6.19534 -2.21599,7.49754 -1.2188,1.3022 -4.37659,2.36764 -7.01731,2.36764 -2.64073,0 -5.79851,-1.06544 -7.01731,-2.36764 z m 11.63396,-7.49754 c 0,-3.61603 -1.11121,-5.101176 -4.16324,-5.564227 -2.4972,-0.378872 -4.6085,0.608087 -5.27589,2.466297 -1.83866,5.11938 0.73845,9.35058 5.27589,8.66216 3.05203,-0.46305 4.16324,-1.94819 4.16324,-5.56423 z M 117.79935,91.628427 c -6.53071,-9.961968 -1.53019,-25.210452 8.2674,-25.210452 9.86394,0 14.76542,14.312015 8.43609,24.632864 -3.96928,6.472453 -12.64242,6.77236 -16.70349,0.577588 z m 13.64512,-2.391655 c 3.06881,-3.950741 1.67897,-15.07668 -2.20821,-17.677138 -4.73706,-3.169013 -9.57149,0.829274 -10.28263,8.504197 -0.66031,7.126246 2.20468,12.003608 7.05097,12.003608 1.7826,0 4.23054,-1.273799 5.43987,-2.830667 z m 17.7481,2.391655 c -6.53071,-9.961968 -1.53019,-25.210452 8.2674,-25.210452 9.86394,0 14.76542,14.312015 8.43609,24.632864 -3.96928,6.472453 -12.64242,6.77236 -16.70349,0.577588 z m 13.64512,-2.391655 c 3.06881,-3.950741 1.67897,-15.07668 -2.20821,-17.677138 -4.73706,-3.169013 -9.57148,0.829274 -10.28263,8.504197 -0.6603,7.126246 2.20468,12.003608 7.05098,12.003608 1.7826,0 4.23054,-1.273799 5.43986,-2.830667 z"
         id="path969" />
    </g>
  </g>
</svg>
