<?xml version="1.0" encoding="utf-8"?>
<svg version="1.1" xmlns:xlink="http://www.w3.org/1999/xlink" width="14px" height="25px" xmlns="http://www.w3.org/2000/svg">
  <g transform="matrix(1 0 0 1 -426 -1922 )">
    <path d="M 1.65333512130259 25  C 0.844439974521497 25  0 24.5896834344421  0 23.8028630897007  C 0 23.8028630897007  0 1.16277654843701  0 1.16277654843701  C 0 0.341991313019122  0.94963514253467 0  1.86435124654984 0  C 2.81398638908445 0  3.72870249309961 0.341991313019122  3.72870249309961 1.16277654843701  C 3.72870249309961 1.16277654843701  3.72870249309961 21.785108258716  3.72870249309961 21.785108258716  C 3.72870249309961 21.785108258716  12.874486796965 21.785108258716  12.874486796965 21.785108258716  C 13.6131058142524 21.785108258716  14 22.5715635531322  14 23.3925465241429  C 14 24.1791995541519  13.6131058142524 24.9999695791396  12.874486796965 24.9999695791396  C 12.874486796965 24.9999695791396  1.65333512130259 24.9999695791396  1.65333512130259 24.9999695791396  Z " fill-rule="nonzero" fill="#ffffff" stroke="none" transform="matrix(1 0 0 1 426 1922 )" />
  </g>
</svg>