<?xml version="1.0" encoding="utf-8"?>
<svg version="1.1" xmlns:xlink="http://www.w3.org/1999/xlink" width="73px" height="73px" xmlns="http://www.w3.org/2000/svg">
  <g transform="matrix(1 0 0 1 -898 -1922 )">
    <path d="M 71.5071101261556 54.4489197390642  C 71.5071101261556 54.4489197390642  58.7992085789283 41.723477738003  58.7992085789283 41.723477738003  C 57.836094655137 40.7590335792256  56.5542792017645 40.227987880275  55.1894277389726 40.227987880275  C 53.8245762761808 40.227987880275  52.5427570071659 40.7590335792256  51.579646899017 41.723477738003  C 51.579646899017 41.723477738003  46.148171550053 47.1624549394034  46.148171550053 47.1624549394034  C 45.5955825896577 47.7156160797396  44.6967546086426 47.7157994835383  44.1441694638897 47.1624549394034  C 44.1441694638897 47.1624549394034  25.9024055279615 28.8954977298546  25.9024055279615 28.8954977298546  C 25.3500149809699 28.3421531857198  25.3500149809699 27.4420684766137  25.9024055279615 26.8887239324789  C 25.9024055279615 26.8887239324789  31.3338789691044 21.4497467310785  31.3338789691044 21.4497467310785  C 32.296996708538 20.4853025723011  32.8275007308523 19.2017205202471  32.8275007308523 17.83517881661  C 32.8275007308523 16.468637112973  32.296996708538 15.1848563734705  31.3338789691044 14.220412214693  C 31.3338789691044 14.220412214693  18.6261758352807 1.49495492998201  18.6261758352807 1.49495492998201  C 16.6358528270408 -0.498308120894089  13.3969362096987 -0.498308120894089  11.4068087531307 1.49495492998201  C 11.4068087531307 1.49495492998201  2.90094251658968 10.0127775500351  2.90094251658968 10.0127775500351  C 0.191750427557756 12.7257018231091  -1.99866042531241 18.2331650596502  2.9515505738308 29.0649475561444  C 6.36925507671218 36.5431763109289  12.5383575323028 44.9547469969722  20.3228164810087 52.7499433667494  C 28.0631141387478 60.501122824854  36.4869154468546 66.6599752195507  44.0415821029281 70.0915825612299  C 48.3100534708703 72.0304663858104  52.1380928704618 73  55.3688010871392 73  C 58.5393289922387 73  61.1344046078168 72.0654812277  63.0012381661511 70.1960768755027  C 63.0012381661511 70.1960768755027  71.5071101261556 61.6782695390996  71.5071101261556 61.6782695390996  C 73.4976315477991 59.6849912045735  73.4976315477991 56.4419993861416  71.5071101261556 54.4489197390642  Z " fill-rule="nonzero" fill="#01dbca" stroke="none" transform="matrix(1 0 0 1 898 1922 )" />
  </g>
</svg>