<?xml version="1.0" encoding="UTF-8" standalone="no"?>
<svg
   xmlns:dc="http://purl.org/dc/elements/1.1/"
   xmlns:cc="http://creativecommons.org/ns#"
   xmlns:rdf="http://www.w3.org/1999/02/22-rdf-syntax-ns#"
   xmlns:svg="http://www.w3.org/2000/svg"
   xmlns="http://www.w3.org/2000/svg"
   xmlns:sodipodi="http://sodipodi.sourceforge.net/DTD/sodipodi-0.dtd"
   xmlns:inkscape="http://www.inkscape.org/namespaces/inkscape"
   width="210mm"
   height="297mm"
   viewBox="0 0 210 297"
   version="1.1"
   id="svg8"
   inkscape:version="1.0.1 (3bc2e813f5, 2020-09-07)"
   sodipodi:docname="xv.svg">
  <style
     id="style833"></style>
  <defs
     id="defs2" />
  <sodipodi:namedview
     id="base"
     pagecolor="#ffffff"
     bordercolor="#666666"
     borderopacity="1.0"
     inkscape:pageopacity="0.0"
     inkscape:pageshadow="2"
     inkscape:zoom="0.35"
     inkscape:cx="400"
     inkscape:cy="606.40736"
     inkscape:document-units="mm"
     inkscape:current-layer="layer1"
     inkscape:document-rotation="0"
     showgrid="false"
     inkscape:window-width="1267"
     inkscape:window-height="1041"
     inkscape:window-x="583"
     inkscape:window-y="0"
     inkscape:window-maximized="0" />
  <metadata
     id="metadata5">
    <rdf:RDF>
      <cc:Work
         rdf:about="">
        <dc:format>image/svg+xml</dc:format>
        <dc:type
           rdf:resource="http://purl.org/dc/dcmitype/StillImage" />
        <dc:title></dc:title>
      </cc:Work>
    </rdf:RDF>
  </metadata>
  <g
     inkscape:label="Layer 1"
     inkscape:groupmode="layer"
     id="layer1">
    <path
       style="fill:#000000;stroke-width:0.374177"
       id="path866"
       d="" />
    <path
       style="fill:#000000;stroke-width:0.264583"
       id="path878"
       d="" />
    <path
       style="fill:#000000;stroke-width:0.264583"
       id="path911"
       d="" />
    <g
       id="g1078"
       transform="translate(-78.619048,18.142857)">
      <path
         style="fill:#b9b9b9;fill-opacity:1;stroke-width:0.264583"
         d="m 166.17093,80.521528 c 0.097,-0.09701 0.25576,-0.09701 0.35278,0 0.097,0.09701 0.0176,0.176389 -0.17639,0.176389 -0.19403,0 -0.27341,-0.07937 -0.17639,-0.176389 z m 1.23472,0.0441 c 0,-0.07276 0.0595,-0.132291 0.13229,-0.132291 0.0728,0 0.13229,0.05953 0.13229,0.132291 0,0.07276 -0.0595,0.132292 -0.13229,0.132292 -0.0728,0 -0.13229,-0.05953 -0.13229,-0.132292 z m 7.9375,0 c 0,-0.07276 0.0595,-0.132291 0.13229,-0.132291 0.0728,0 0.13229,0.05953 0.13229,0.132291 0,0.07276 -0.0595,0.132292 -0.13229,0.132292 -0.0728,0 -0.13229,-0.05953 -0.13229,-0.132292 z m 0.79375,0 c 0,-0.07276 0.0595,-0.132291 0.13229,-0.132291 0.0728,0 0.13229,0.05953 0.13229,0.132291 0,0.07276 -0.0595,0.132292 -0.13229,0.132292 -0.0728,0 -0.13229,-0.05953 -0.13229,-0.132292 z m -8.20208,-0.264583 c 0,-0.07276 0.0595,-0.132292 0.13229,-0.132292 0.0728,0 0.13229,0.05953 0.13229,0.132292 0,0.07276 -0.0595,0.132292 -0.13229,0.132292 -0.0728,0 -0.13229,-0.05953 -0.13229,-0.132292 z m 6.58083,-0.330729 c -0.32911,-0.419644 -0.31975,-0.429002 0.0999,-0.0999 0.44073,0.345644 0.58088,0.562916 0.36312,0.562916 -0.0549,0 -0.2633,-0.20836 -0.46302,-0.463021 z m 2.01813,-0.06615 c 0.0899,-0.145521 0.22305,-0.264583 0.29581,-0.264583 0.0728,0 0.0587,0.119062 -0.0312,0.264583 -0.0899,0.145521 -0.22305,0.264583 -0.29581,0.264583 -0.0728,0 -0.0587,-0.119062 0.0312,-0.264583 z m 0.66145,-0.396875 c 0,-0.07276 0.0595,-0.132292 0.1323,-0.132292 0.0728,0 0.13229,0.05953 0.13229,0.132292 0,0.07276 -0.0595,0.132292 -0.13229,0.132292 -0.0728,0 -0.1323,-0.05953 -0.1323,-0.132292 z m -8.73125,-0.264583 c 0,-0.07276 0.0595,-0.132292 0.1323,-0.132292 0.0728,0 0.13229,0.05953 0.13229,0.132292 0,0.07276 -0.0595,0.132291 -0.13229,0.132291 -0.0728,0 -0.1323,-0.05953 -0.1323,-0.132291 z m 7.27605,-0.132292 c 0.0899,-0.145521 0.22305,-0.264583 0.29581,-0.264583 0.0728,0 0.0587,0.119062 -0.0312,0.264583 -0.0899,0.145521 -0.22305,0.264583 -0.29581,0.264583 -0.0728,0 -0.0587,-0.119062 0.0312,-0.264583 z m -8.86355,-0.264583 c 0,-0.194028 0.0794,-0.273403 0.17639,-0.176389 0.097,0.09701 0.097,0.255764 0,0.352778 -0.097,0.09701 -0.17639,0.01764 -0.17639,-0.176389 z m 1.85209,-0.132292 c 0,-0.07276 0.0595,-0.132292 0.13229,-0.132292 0.0728,0 0.13229,0.05953 0.13229,0.132292 0,0.07276 -0.0595,0.132292 -0.13229,0.132292 -0.0728,0 -0.13229,-0.05953 -0.13229,-0.132292 z m 8.46666,0 c 0,-0.07276 0.0595,-0.132292 0.1323,-0.132292 0.0728,0 0.13229,0.05953 0.13229,0.132292 0,0.07276 -0.0595,0.132292 -0.13229,0.132292 -0.0728,0 -0.1323,-0.05953 -0.1323,-0.132292 z m -12.96458,-0.264583 c 0,-0.07276 0.0595,-0.132292 0.13229,-0.132292 0.0728,0 0.13229,0.05953 0.13229,0.132292 0,0.07276 -0.0595,0.132291 -0.13229,0.132291 -0.0728,0 -0.13229,-0.05953 -0.13229,-0.132291 z m 2.61208,-0.595313 c -0.3291,-0.419644 -0.31974,-0.429002 0.0999,-0.0999 0.25466,0.199719 0.46302,0.408079 0.46302,0.463021 0,0.217761 -0.21727,0.0776 -0.56292,-0.363126 z m 9.78959,0 c -0.32911,-0.419644 -0.31975,-0.429002 0.0999,-0.0999 0.25466,0.199719 0.46302,0.408079 0.46302,0.463021 0,0.217761 -0.21727,0.0776 -0.56291,-0.363126 z m -10.72598,0.02205 c 0.097,-0.09701 0.25577,-0.09701 0.35278,0 0.097,0.09701 0.0176,0.176389 -0.17639,0.176389 -0.19402,0 -0.2734,-0.07937 -0.17639,-0.176389 z m 6.89813,-0.418924 -0.50403,-0.595312 0.59531,0.504028 c 0.32743,0.277215 0.59532,0.545106 0.59532,0.595312 0,0.211734 -0.21294,0.05542 -0.6866,-0.504028 z m -4.0759,0.06615 c 0,-0.194028 0.0794,-0.273403 0.17639,-0.176389 0.097,0.09701 0.097,0.255764 0,0.352778 -0.097,0.09701 -0.17639,0.01764 -0.17639,-0.176389 z m -4.23334,-0.661458 c 0,-0.07276 0.0595,-0.132292 0.1323,-0.132292 0.0728,0 0.13229,0.05953 0.13229,0.132292 0,0.07276 -0.0595,0.132291 -0.13229,0.132291 -0.0728,0 -0.1323,-0.05953 -0.1323,-0.132291 z m 0.52917,0.0324 c 0,-0.05494 0.20836,-0.263301 0.46302,-0.46302 0.41964,-0.329108 0.429,-0.31975 0.0999,0.09989 -0.34565,0.44073 -0.56292,0.580888 -0.56292,0.363126 z m 6.61458,-0.0324 c 0,-0.07276 0.0595,-0.132292 0.1323,-0.132292 0.0728,0 0.13229,0.05953 0.13229,0.132292 0,0.07276 -0.0595,0.132291 -0.13229,0.132291 -0.0728,0 -0.1323,-0.05953 -0.1323,-0.132291 z m 1.5875,-0.132292 c 0,-0.145521 0.12609,-0.264583 0.2802,-0.264583 0.15411,0 0.20662,0.119062 0.11668,0.264583 -0.0899,0.145521 -0.21603,0.264583 -0.2802,0.264583 -0.0642,0 -0.11668,-0.119062 -0.11668,-0.264583 z m -5.02708,-0.264583 c 0,-0.145521 0.11906,-0.264584 0.26458,-0.264584 0.14552,0 0.26459,0.119063 0.26459,0.264584 0,0.14552 -0.11907,0.264583 -0.26459,0.264583 -0.14552,0 -0.26458,-0.119063 -0.26458,-0.264583 z m 6.05167,-0.198438 c -0.32911,-0.419644 -0.31975,-0.429002 0.0999,-0.0999 0.44073,0.345644 0.58089,0.562916 0.36313,0.562916 -0.0549,0 -0.2633,-0.208359 -0.46302,-0.463021 z m -7.11,-0.198437 c 0,-0.07276 0.0595,-0.132292 0.13229,-0.132292 0.0728,0 0.13229,0.05953 0.13229,0.132292 0,0.07276 -0.0595,0.132291 -0.13229,0.132291 -0.0728,0 -0.13229,-0.05953 -0.13229,-0.132291 z m 1.85208,-0.338373 c 0,-0.258777 3.25298,-3.498086 3.51285,-3.498086 0.10522,0 0.19132,0.138906 0.19132,0.308681 0,0.169774 -0.0826,0.226088 -0.18354,0.125141 -0.23598,-0.235982 -3.27561,2.760061 -3.09564,3.051254 0.0745,0.1205 0.009,0.219091 -0.14479,0.219091 -0.15411,0 -0.2802,-0.09274 -0.2802,-0.206081 z m 3.04271,-0.323086 c 0.26339,-0.291041 0.53842,-0.529166 0.61118,-0.529166 0.0728,0 -0.0832,0.238125 -0.3466,0.529166 -0.26339,0.291042 -0.53842,0.529167 -0.61118,0.529167 -0.0728,0 0.0832,-0.238125 0.3466,-0.529167 z m 1.56223,-0.305463 c -0.11696,-0.189257 -0.0726,-0.233644 0.11668,-0.116677 0.305,0.1885 0.40949,0.42214 0.18879,0.42214 -0.0642,0 -0.20163,-0.137459 -0.30547,-0.305463 z m -1.42994,-0.620578 c 0,-0.07276 0.0595,-0.132292 0.13229,-0.132292 0.0728,0 0.13229,0.05953 0.13229,0.132292 0,0.07276 -0.0595,0.132291 -0.13229,0.132291 -0.0728,0 -0.13229,-0.05953 -0.13229,-0.132291 z m -4.24237,-2.14109 c -0.7954,-0.813797 -1.6843,-1.580157 -1.97534,-1.703021 -0.36244,-0.153004 -0.40171,-0.228673 -0.12465,-0.24016 0.22249,-0.0092 1.17155,0.757135 2.10903,1.70302 0.93747,0.945886 1.64434,1.719792 1.57082,1.719792 -0.0735,0 -0.78447,-0.665834 -1.57986,-1.479631 z m 2.39029,0.289006 c 0,-0.07276 0.0595,-0.132292 0.13229,-0.132292 0.0728,0 0.13229,0.05953 0.13229,0.132292 0,0.07276 -0.0595,0.132292 -0.13229,0.132292 -0.0728,0 -0.13229,-0.05953 -0.13229,-0.132292 z m 3.79236,-0.573264 c 0.097,-0.09701 0.25576,-0.09701 0.35278,0 0.097,0.09701 0.0176,0.176389 -0.17639,0.176389 -0.19403,0 -0.27341,-0.07937 -0.17639,-0.176389 z m 0.97014,0.0441 c 0,-0.07276 0.0595,-0.132291 0.13229,-0.132291 0.0728,0 0.13229,0.05953 0.13229,0.132291 0,0.07276 -0.0595,0.132292 -0.13229,0.132292 -0.0728,0 -0.13229,-0.05953 -0.13229,-0.132292 z m 1.05833,0 c 0,-0.07276 0.0595,-0.132291 0.13229,-0.132291 0.0728,0 0.13229,0.05953 0.13229,0.132291 0,0.07276 -0.0595,0.132292 -0.13229,0.132292 -0.0728,0 -0.13229,-0.05953 -0.13229,-0.132292 z m -3.175,-0.396875 c 0,-0.14552 0.11906,-0.264583 0.26458,-0.264583 0.14552,0 0.26459,0.119063 0.26459,0.264583 0,0.145521 -0.11907,0.264584 -0.26459,0.264584 -0.14552,0 -0.26458,-0.119063 -0.26458,-0.264584 z m 3.43958,-0.396875 c 0,-0.07276 0.0595,-0.132291 0.1323,-0.132291 0.0728,0 0.13229,0.05953 0.13229,0.132291 0,0.07276 -0.0595,0.132292 -0.13229,0.132292 -0.0728,0 -0.1323,-0.05953 -0.1323,-0.132292 z m 0.52917,0 c 0,-0.07276 0.0595,-0.132291 0.13229,-0.132291 0.0728,0 0.13229,0.05953 0.13229,0.132291 0,0.07276 -0.0595,0.132292 -0.13229,0.132292 -0.0728,0 -0.13229,-0.05953 -0.13229,-0.132292 z m -4.23333,-0.79375 c 0,-0.07276 0.0595,-0.132291 0.13229,-0.132291 0.0728,0 0.13229,0.05953 0.13229,0.132291 0,0.07276 -0.0595,0.132292 -0.13229,0.132292 -0.0728,0 -0.13229,-0.05953 -0.13229,-0.132292 z m 1.81833,-0.330729 c -0.32911,-0.419644 -0.31975,-0.429002 0.0999,-0.0999 0.25466,0.19972 0.46302,0.408079 0.46302,0.463021 0,0.217761 -0.21728,0.0776 -0.56292,-0.363126 z m 0.91569,0.02205 c 0.097,-0.09701 0.25577,-0.09701 0.35278,10e-7 0.097,0.09701 0.0176,0.176389 -0.17639,0.176389 -0.19402,0 -0.2734,-0.07937 -0.17639,-0.17639 z M 165.0244,69.982292 c 0,-0.07276 0.0595,-0.132292 0.13229,-0.132292 0.0728,0 0.13229,0.05953 0.13229,0.132292 0,0.07276 -0.0595,0.132291 -0.13229,0.132291 -0.0728,0 -0.13229,-0.05953 -0.13229,-0.132291 z m 0.52917,0 c 0,-0.07276 0.0595,-0.132292 0.13229,-0.132292 0.0728,0 0.13229,0.05953 0.13229,0.132292 0,0.07276 -0.0595,0.132291 -0.13229,0.132291 -0.0728,0 -0.13229,-0.05953 -0.13229,-0.132291 z m 11.64166,-0.396875 c 0,-0.194028 0.0794,-0.273403 0.17639,-0.176389 0.097,0.09701 0.097,0.255764 0,0.352778 -0.097,0.09701 -0.17639,0.01764 -0.17639,-0.176389 z m -10.03328,-0.418924 c 0.0127,-0.308224 0.0754,-0.370919 0.15986,-0.159852 0.0764,0.190996 0.067,0.419199 -0.0209,0.507118 -0.0879,0.08792 -0.15045,-0.06835 -0.13897,-0.347266 z m 7.38745,0.15434 c 0,-0.194027 0.0794,-0.273402 0.17639,-0.176389 0.097,0.09701 0.097,0.255764 0,0.352778 -0.097,0.09701 -0.17639,0.01764 -0.17639,-0.176389 z m -9.525,-0.132291 c 0,-0.07276 0.0595,-0.132292 0.13229,-0.132292 0.0728,0 0.13229,0.05953 0.13229,0.132292 0,0.07276 -0.0595,0.132291 -0.13229,0.132291 -0.0728,0 -0.13229,-0.05953 -0.13229,-0.132291 z m 1.5875,-0.264584 c 0,-0.07276 0.0595,-0.132291 0.13229,-0.132291 0.0728,0 0.13229,0.05953 0.13229,0.132291 0,0.07276 -0.0595,0.132292 -0.13229,0.132292 -0.0728,0 -0.13229,-0.05953 -0.13229,-0.132292 z m 6.35,0.0324 c 0,-0.05494 0.20836,-0.263301 0.46302,-0.463021 0.41965,-0.329107 0.429,-0.319749 0.0999,0.09989 -0.34565,0.440729 -0.56292,0.580887 -0.56292,0.363126 z m -8.73125,-0.29698 c 0,-0.07276 0.0595,-0.132292 0.13229,-0.132292 0.0728,0 0.13229,0.05953 0.13229,0.132292 0,0.07276 -0.0595,0.132292 -0.13229,0.132292 -0.0728,0 -0.13229,-0.05953 -0.13229,-0.132292 z m 0.66146,-0.396875 c 0.0899,-0.145521 0.22305,-0.264583 0.29581,-0.264583 0.0728,0 0.0587,0.119062 -0.0312,0.264583 -0.0899,0.145521 -0.22305,0.264583 -0.29581,0.264583 -0.0728,0 -0.0587,-0.119062 0.0312,-0.264583 z m 0.92604,0.132292 c 0,-0.07276 0.0595,-0.132292 0.13229,-0.132292 0.0728,0 0.13229,0.05953 0.13229,0.132292 0,0.07276 -0.0595,0.132291 -0.13229,0.132291 -0.0728,0 -0.13229,-0.05953 -0.13229,-0.132291 z m 0.79375,0 c 0,-0.07276 0.0595,-0.132292 0.13229,-0.132292 0.0728,0 0.13229,0.05953 0.13229,0.132292 0,0.07276 -0.0595,0.132291 -0.13229,0.132291 -0.0728,0 -0.13229,-0.05953 -0.13229,-0.132291 z m 6.87917,-0.529167 c 0,-0.07276 0.0595,-0.132292 0.13229,-0.132292 0.0728,0 0.13229,0.05953 0.13229,0.132292 0,0.07276 -0.0595,0.132292 -0.13229,0.132292 -0.0728,0 -0.13229,-0.05953 -0.13229,-0.132292 z m -8.20209,-0.264583 c 0,-0.07276 0.0595,-0.132292 0.1323,-0.132292 0.0728,0 0.13229,0.05953 0.13229,0.132292 0,0.07276 -0.0595,0.132291 -0.13229,0.132291 -0.0728,0 -0.1323,-0.05953 -0.1323,-0.132291 z m 8.99584,0 c 0,-0.07276 0.0595,-0.132292 0.13229,-0.132292 0.0728,0 0.13229,0.05953 0.13229,0.132292 0,0.07276 -0.0595,0.132291 -0.13229,0.132291 -0.0728,0 -0.13229,-0.05953 -0.13229,-0.132291 z m 0.79375,0 c 0,-0.07276 0.0595,-0.132292 0.13229,-0.132292 0.0728,0 0.13229,0.05953 0.13229,0.132292 0,0.07276 -0.0595,0.132291 -0.13229,0.132291 -0.0728,0 -0.13229,-0.05953 -0.13229,-0.132291 z"
         id="path1084" />
      <path
         style="fill:#a3a3a3;fill-opacity:1;stroke-width:0.264583"
         d="m 166.82687,80.517176 c 0.191,-0.07643 0.4192,-0.06703 0.50712,0.02089 0.0879,0.08792 -0.0684,0.150453 -0.34726,0.138965 -0.30823,-0.0127 -0.37092,-0.07539 -0.15986,-0.159855 z m 8.86906,0.0044 c 0.097,-0.09701 0.25576,-0.09701 0.35278,-10e-7 0.097,0.09701 0.0176,0.176389 -0.17639,0.176389 -0.19403,0 -0.27341,-0.07937 -0.17639,-0.176388 z m -9.34861,-0.749654 c 0.34177,-0.363802 0.68094,-0.661458 0.7537,-0.661458 0.0728,0 -0.14735,0.297656 -0.48912,0.661458 -0.34177,0.363802 -0.68094,0.661459 -0.7537,0.661459 -0.0728,0 0.14734,-0.297657 0.48912,-0.661459 z m 10.45104,0.396875 c 0.0899,-0.145521 0.22305,-0.264583 0.29581,-0.264583 0.0728,0 0.0587,0.119062 -0.0312,0.264583 -0.0899,0.145521 -0.22305,0.264584 -0.29581,0.264584 -0.0728,0 -0.0587,-0.119063 0.0312,-0.264584 z m -9.12813,-0.132291 c 0,-0.07276 0.0595,-0.132292 0.1323,-0.132292 0.0728,0 0.13229,0.05953 0.13229,0.132292 0,0.07276 -0.0595,0.132291 -0.13229,0.132291 -0.0728,0 -0.1323,-0.05953 -0.1323,-0.132291 z m 0.52917,0.0324 c 0,-0.05494 0.20836,-0.263302 0.46302,-0.463021 0.41964,-0.329108 0.429,-0.31975 0.0999,0.09989 -0.34565,0.44073 -0.56292,0.580888 -0.56292,0.363127 z m 6.20106,-0.760002 -0.7771,-0.859895 0.85989,0.777105 c 0.80155,0.724371 0.98152,0.942686 0.77711,0.942686 -0.0455,0 -0.43249,-0.386953 -0.8599,-0.859896 z m 1.47186,-0.06614 c 0,-0.07276 0.0595,-0.132292 0.13229,-0.132292 0.0728,0 0.13229,0.05953 0.13229,0.132292 0,0.07276 -0.0595,0.132291 -0.13229,0.132291 -0.0728,0 -0.13229,-0.05953 -0.13229,-0.132291 z m 1.32291,-0.132292 c 0,-0.194028 0.0794,-0.273403 0.17639,-0.176389 0.097,0.09701 0.097,0.255764 0,0.352778 -0.097,0.09701 -0.17639,0.01764 -0.17639,-0.176389 z m -12.7,-0.132292 c 0,-0.07276 0.0595,-0.132291 0.1323,-0.132291 0.0728,0 0.13229,0.05953 0.13229,0.132291 0,0.07276 -0.0595,0.132292 -0.13229,0.132292 -0.0728,0 -0.1323,-0.05953 -0.1323,-0.132292 z m 4.32153,-0.0441 c 0.097,-0.09701 0.25577,-0.09701 0.35278,0 0.097,0.09701 0.0176,0.176389 -0.17639,0.176389 -0.19403,0 -0.2734,-0.07937 -0.17639,-0.176389 z m 5.61937,-0.862468 c -0.54616,-0.559318 -0.88252,-1.085237 -0.74745,-1.168709 0.13506,-0.08347 0.69242,0.305856 1.23858,0.865173 0.54616,0.559318 0.88251,1.085236 0.74745,1.168709 -0.13506,0.08347 -0.69242,-0.305856 -1.23858,-0.865173 z m 1.1716,0.693884 c 0,-0.04421 -0.44648,-0.490698 -0.99218,-0.992187 l -0.99219,-0.911798 0.9118,0.992187 c 0.84868,0.923507 1.07257,1.11384 1.07257,0.911798 z m -9.02958,-0.647215 c -0.32911,-0.419644 -0.31975,-0.429002 0.0999,-0.09989 0.25466,0.199719 0.46302,0.408078 0.46302,0.463021 0,0.217761 -0.21728,0.0776 -0.56292,-0.363127 z m 6.11382,-0.204128 c -0.34471,-0.366932 -0.65419,-0.854091 -0.68772,-1.082577 -0.0335,-0.228486 -4.5e-4,-0.35491 0.0735,-0.280942 0.074,0.07397 0.11295,0.215068 0.0866,0.313556 -0.0263,0.09849 0.28369,0.525128 0.68891,0.94809 0.40522,0.422962 0.67572,0.769022 0.6011,0.769022 -0.0746,0 -0.41771,-0.300217 -0.76243,-0.667149 z m 3.42491,-0.06046 -0.64144,-0.727604 0.72761,0.641433 c 0.40018,0.352788 0.7276,0.68021 0.7276,0.727604 0,0.207506 -0.21426,0.03862 -0.81377,-0.641433 z m -11.86534,0.0441 c 0.0127,-0.308224 0.0754,-0.370919 0.15985,-0.159852 0.0764,0.190996 0.067,0.419199 -0.0209,0.507118 -0.0879,0.08792 -0.15045,-0.06835 -0.13896,-0.347266 z m 1.30203,0.02205 c 0,-0.07276 0.0595,-0.132292 0.13229,-0.132292 0.0728,0 0.13229,0.05953 0.13229,0.132292 0,0.07276 -0.0595,0.132292 -0.13229,0.132292 -0.0728,0 -0.13229,-0.05953 -0.13229,-0.132292 z m -0.79375,-0.79375 c 0,-0.07276 0.0595,-0.132292 0.13229,-0.132292 0.0728,0 0.13229,0.05953 0.13229,0.132292 0,0.07276 -0.0595,0.132292 -0.13229,0.132292 -0.0728,0 -0.13229,-0.05953 -0.13229,-0.132292 z m 6.61458,-2.38125 c 1.3767,-1.382448 2.56262,-2.513542 2.63538,-2.513542 0.0728,0 -0.9941,1.131094 -2.3708,2.513542 -1.3767,1.382448 -2.56262,2.513542 -2.63538,2.513542 -0.0728,0 0.9941,-1.131094 2.3708,-2.513542 z m -6.61458,1.88448 c 0,-0.05494 0.20836,-0.263302 0.46302,-0.463021 0.41964,-0.329107 0.429,-0.319749 0.0999,0.0999 -0.34564,0.440729 -0.56291,0.580887 -0.56291,0.363126 z m 6.45702,-0.205569 c -0.11696,-0.189256 -0.0726,-0.233643 0.11668,-0.116677 0.168,0.103833 0.30546,0.241292 0.30546,0.305464 0,0.2207 -0.23364,0.116212 -0.42214,-0.188787 z m 3.4705,-0.217464 c -0.26029,-0.28761 -0.5629,-0.467514 -0.67249,-0.399788 -0.10958,0.06773 -0.36156,-0.08391 -0.55995,-0.336968 -0.31864,-0.406444 -0.31158,-0.421802 0.0605,-0.131674 0.23167,0.180638 0.47925,0.270405 0.55017,0.199481 0.0709,-0.07092 0.40815,0.168234 0.74938,0.531462 0.34124,0.363228 0.5586,0.660415 0.48303,0.660415 -0.0756,0 -0.35037,-0.235317 -0.61065,-0.522928 z m -8.76216,-0.311702 c -0.11697,-0.189257 -0.0726,-0.233644 0.11667,-0.116677 0.305,0.1885 0.40949,0.42214 0.18879,0.42214 -0.0642,0 -0.20163,-0.137458 -0.30546,-0.305463 z m 1.48047,0.173172 c 0,-0.07276 0.0595,-0.132292 0.13229,-0.132292 0.0728,0 0.13229,0.05953 0.13229,0.132292 0,0.07276 -0.0595,0.132291 -0.13229,0.132291 -0.0728,0 -0.13229,-0.05953 -0.13229,-0.132291 z m 4.89479,-0.396875 c 0.26339,-0.291042 0.53842,-0.529167 0.61118,-0.529167 0.0728,0 -0.0832,0.238125 -0.34659,0.529167 -0.26339,0.29099 -0.53843,0.529115 -0.61119,0.529115 -0.0728,0 0.0832,-0.238125 0.3466,-0.529166 z m -1.19062,0.132291 c 0,-0.07276 0.0595,-0.132291 0.13229,-0.132291 0.0728,0 0.13229,0.05953 0.13229,0.132291 0,0.07276 -0.0595,0.132292 -0.13229,0.132292 -0.0728,0 -0.13229,-0.05953 -0.13229,-0.132292 z m -0.26459,-1.5875 c 0.79043,-0.800364 1.49667,-1.455208 1.56943,-1.455208 0.0728,0 -0.51442,0.654844 -1.30484,1.455208 -0.79043,0.800365 -1.49667,1.455209 -1.56943,1.455209 -0.0728,0 0.51442,-0.654844 1.30484,-1.455209 z m -2.91041,1.107835 c 0,-0.04554 0.38695,-0.432488 0.85989,-0.859896 l 0.8599,-0.777106 -0.77711,0.859896 c -0.72437,0.801544 -0.94268,0.981512 -0.94268,0.777106 z m 5.13411,-0.75184 c -0.11697,-0.189257 -0.0726,-0.233644 0.11667,-0.116677 0.305,0.1885 0.40949,0.422141 0.18879,0.422141 -0.0642,0 -0.20163,-0.137459 -0.30546,-0.305464 z m -0.6362,-0.09141 c 0,-0.07276 0.0595,-0.132292 0.1323,-0.132292 0.0728,0 0.13229,0.05953 0.13229,0.132292 0,0.07276 -0.0595,0.132291 -0.13229,0.132291 -0.0728,0 -0.1323,-0.05953 -0.1323,-0.132291 z m -4.50366,-2.710065 -1.71404,-1.787852 1.7787,1.704978 c 0.97828,0.937738 1.86459,1.619091 1.96956,1.514119 0.10497,-0.104972 -0.57638,-0.991275 -1.51412,-1.969561 l -1.70498,-1.778703 1.78785,1.714047 c 1.67947,1.610133 1.97172,2.103945 1.36487,2.306228 -0.13959,0.04653 -1.02511,-0.719937 -1.96784,-1.703256 z m 3.44533,0.06423 c 0.34177,-0.363802 0.68094,-0.661458 0.7537,-0.661458 0.0728,0 -0.14734,0.297656 -0.48912,0.661458 -0.34177,0.363802 -0.68094,0.661458 -0.7537,0.661458 -0.0728,0 0.14735,-0.297656 0.48912,-0.661458 z m 4.07578,0.355995 c -0.11697,-0.189257 -0.0726,-0.233644 0.11667,-0.116677 0.305,0.1885 0.40949,0.42214 0.18879,0.42214 -0.0642,0 -0.20163,-0.137458 -0.30546,-0.305463 z m 0.42214,-0.355995 c 0,-0.07276 0.0595,-0.132292 0.13229,-0.132292 0.0728,0 0.13229,0.05953 0.13229,0.132292 0,0.07276 -0.0595,0.132292 -0.13229,0.132292 -0.0728,0 -0.13229,-0.05953 -0.13229,-0.132292 z m 0.66146,-0.132292 c 0.0899,-0.14552 0.22305,-0.264583 0.29581,-0.264583 0.0728,0 0.0587,0.119063 -0.0312,0.264583 -0.0899,0.145521 -0.22305,0.264584 -0.29581,0.264584 -0.0728,0 -0.0587,-0.119063 0.0312,-0.264584 z m 0.13229,-0.661458 c 0,-0.07276 0.0595,-0.132292 0.13229,-0.132292 0.0728,0 0.13229,0.05953 0.13229,0.132292 0,0.07276 -0.0595,0.132292 -0.13229,0.132292 -0.0728,0 -0.13229,-0.05953 -0.13229,-0.132292 z m -3.96875,-0.264583 c 0,-0.07276 0.0595,-0.132292 0.13229,-0.132292 0.0728,0 0.13229,0.05953 0.13229,0.132292 0,0.07276 -0.0595,0.132291 -0.13229,0.132291 -0.0728,0 -0.13229,-0.05953 -0.13229,-0.132291 z m 4.5188,-0.551215 c 0.0127,-0.308225 0.0754,-0.37092 0.15985,-0.159853 0.0764,0.190996 0.067,0.419199 -0.0209,0.507118 -0.0879,0.08792 -0.15046,-0.06835 -0.13897,-0.347265 z m -11.92714,0.02205 c 0,-0.07276 0.0595,-0.132292 0.1323,-0.132292 0.0728,0 0.13229,0.05953 0.13229,0.132292 0,0.07276 -0.0595,0.132292 -0.13229,0.132292 -0.0728,0 -0.1323,-0.05953 -0.1323,-0.132292 z m 9.49125,-0.330729 c -0.3291,-0.419644 -0.31974,-0.429002 0.0999,-0.0999 0.44073,0.345644 0.58089,0.562916 0.36313,0.562916 -0.0549,0 -0.26331,-0.20836 -0.46303,-0.463021 z m 1.62125,-0.198438 c 0.34178,-0.363802 0.68094,-0.661458 0.7537,-0.661458 0.0728,0 -0.14734,0.297656 -0.48911,0.661458 -0.34178,0.363802 -0.68094,0.661459 -0.7537,0.661459 -0.0728,0 0.14734,-0.297657 0.48911,-0.661459 z m -11.1125,0 c 0,-0.07276 0.0595,-0.132291 0.1323,-0.132291 0.0728,0 0.13229,0.05953 0.13229,0.132291 0,0.07276 -0.0595,0.132292 -0.13229,0.132292 -0.0728,0 -0.1323,-0.05953 -0.1323,-0.132292 z m -0.52916,-0.264583 c 0,-0.07276 0.0595,-0.132292 0.13229,-0.132292 0.0728,0 0.13229,0.05953 0.13229,0.132292 0,0.07276 -0.0595,0.132292 -0.13229,0.132292 -0.0728,0 -0.13229,-0.05953 -0.13229,-0.132292 z m 7.77994,-0.173172 c -0.11697,-0.189256 -0.0726,-0.233644 0.11668,-0.116677 0.168,0.103833 0.30546,0.241292 0.30546,0.305464 0,0.220699 -0.23364,0.116212 -0.42214,-0.188787 z m -7.95633,-0.400092 c 0.097,-0.09701 0.25576,-0.09701 0.35278,0 0.097,0.09701 0.0176,0.176389 -0.17639,0.176389 -0.19403,0 -0.27341,-0.07937 -0.17639,-0.176389 z m 10.09826,-0.352778 c 0.26339,-0.291041 0.53842,-0.529166 0.61118,-0.529166 0.0728,0 -0.0832,0.238125 -0.34659,0.529166 -0.26339,0.291042 -0.53843,0.529167 -0.61119,0.529167 -0.0728,0 0.0832,-0.238125 0.3466,-0.529167 z m -8.33437,0.132292 c 0,-0.07276 0.0595,-0.132292 0.13229,-0.132292 0.0728,0 0.13229,0.05953 0.13229,0.132292 0,0.07276 -0.0595,0.132292 -0.13229,0.132292 -0.0728,0 -0.13229,-0.05953 -0.13229,-0.132292 z m 0.52916,0 c 0,-0.07276 0.0595,-0.132292 0.1323,-0.132292 0.0728,0 0.13229,0.05953 0.13229,0.132292 0,0.07276 -0.0595,0.132292 -0.13229,0.132292 -0.0728,0 -0.1323,-0.05953 -0.1323,-0.132292 z m 5.82084,0.0324 c 0,-0.05494 0.20836,-0.263302 0.46302,-0.463021 0.41964,-0.329107 0.429,-0.319749 0.0999,0.0999 -0.34564,0.440729 -0.56291,0.580887 -0.56291,0.363126 z m -8.06979,-0.693855 c 0.26338,-0.291042 0.53842,-0.529167 0.61118,-0.529167 0.0728,0 -0.0832,0.238125 -0.3466,0.529167 -0.26339,0.291041 -0.53842,0.529166 -0.61118,0.529166 -0.0728,0 0.0832,-0.238125 0.3466,-0.529166 z m 0.92604,0 c 0,-0.194028 0.0794,-0.273403 0.17639,-0.176389 0.097,0.09701 0.097,0.255764 0,0.352778 -0.097,0.09701 -0.17639,0.01764 -0.17639,-0.176389 z m 0.52916,0.132291 c 0,-0.07276 0.0595,-0.132291 0.1323,-0.132291 0.0728,0 0.13229,0.05953 0.13229,0.132291 0,0.07276 -0.0595,0.132292 -0.13229,0.132292 -0.0728,0 -0.1323,-0.05953 -0.1323,-0.132292 z m 7.67292,0 c 0,-0.07276 0.0595,-0.132291 0.13229,-0.132291 0.0728,0 0.13229,0.05953 0.13229,0.132291 0,0.07276 -0.0595,0.132292 -0.13229,0.132292 -0.0728,0 -0.13229,-0.05953 -0.13229,-0.132292 z m 1.85208,-0.264583 c 0,-0.07276 0.0595,-0.132292 0.1323,-0.132292 0.0728,0 0.13229,0.05953 0.13229,0.132292 0,0.07276 -0.0595,0.132292 -0.13229,0.132292 -0.0728,0 -0.1323,-0.05953 -0.1323,-0.132292 z M 174.63759,67.557 c 0.097,-0.09701 0.25577,-0.09701 0.35278,0 0.097,0.09701 0.0176,0.176389 -0.17639,0.176389 -0.19402,0 -0.2734,-0.07937 -0.17639,-0.176389 z"
         id="path1082" />
      <path
         style="fill:#8c8c8c;fill-opacity:1;stroke-width:0.264583"
         d="m 166.56578,79.820968 c 0.64514,-0.68672 0.72898,-1.244778 0.25779,-1.715968 -0.47426,-0.474255 -1.10106,-0.384196 -1.47318,0.211667 -0.49655,0.795104 -0.85516,0.63854 -0.85516,-0.373355 0,-1.116151 1.22399,-2.272478 2.40544,-2.272478 0.51835,0 1.10661,-0.303659 1.76564,-0.911411 l 0.9883,-0.911411 -1.5875,-1.625394 c -0.87313,-0.893967 -1.84815,-1.72829 -2.16673,-1.85405 -0.31857,-0.12576 -0.70896,-0.502245 -0.86754,-0.836632 l -0.28831,-0.607978 0.43679,0.595313 c 0.24024,0.327422 0.56811,0.595312 0.72861,0.595312 0.1605,0 1.09709,0.799105 2.08131,1.775787 1.41075,1.399934 1.85801,1.707284 2.11316,1.45213 0.25515,-0.255153 -0.0522,-0.702411 -1.45213,-2.113156 -0.97668,-0.984224 -1.77579,-1.920817 -1.77579,-2.081316 0,-0.1605 -0.26789,-0.488373 -0.59531,-0.728607 l -0.59531,-0.43679 0.60798,0.288314 c 0.33438,0.158572 0.71087,0.548964 0.83663,0.867538 0.12576,0.318574 0.94639,1.282844 1.82363,2.142823 l 1.59498,1.563597 0.94183,-0.941826 c 0.66401,-0.664013 0.94182,-1.177779 0.94182,-1.741735 0,-1.204721 1.14493,-2.428009 2.27248,-2.428009 1.05901,0 1.10586,0.146327 0.31607,0.987026 -0.45944,0.489045 -0.52493,0.72197 -0.30238,1.075386 0.43149,0.685199 1.13029,0.697393 1.83848,0.03208 l 0.63785,-0.599233 v 0.948643 c 0,0.734494 -0.18376,1.103271 -0.81405,1.63362 -0.44772,0.376738 -1.13982,0.684978 -1.538,0.684978 -0.81515,0 -2.31689,1.361301 -2.02419,1.834899 0.0987,0.15972 0.30871,0.21053 0.46666,0.112912 0.16254,-0.100456 0.21176,-0.05547 0.11342,0.103663 -0.0956,0.154634 0.71947,1.080592 1.8112,2.057686 1.53364,1.372597 1.98496,1.937606 1.98496,2.484937 0,0.899874 -0.44353,1.343404 -1.3434,1.343404 -0.54733,0 -1.11234,-0.451328 -2.48494,-1.984964 -0.97709,-1.091731 -1.90305,-1.906772 -2.05768,-1.811203 -0.15913,0.09835 -0.20412,0.04912 -0.10367,-0.113421 0.0976,-0.15795 0.0468,-0.367946 -0.11291,-0.466658 -0.4872,-0.301108 -1.83055,1.21144 -1.87454,2.110643 l -0.0396,0.810394 -0.11408,-0.76751 c -0.10064,-0.677157 0.19156,-1.07429 2.48208,-3.373438 1.97405,-1.981484 2.76314,-2.605927 3.29303,-2.605927 0.98199,0 2.09117,-0.944137 2.09117,-1.780002 0,-0.645174 -0.027,-0.658853 -0.48385,-0.24538 -0.62889,0.569132 -1.18076,0.554416 -1.7241,-0.04597 -0.56957,-0.629371 -0.55315,-0.814549 0.1374,-1.549614 l 0.57529,-0.612365 h -0.82067 c -1.02079,0 -1.9174,1.039851 -1.9174,2.223719 0,0.694218 -0.39981,1.227584 -2.45237,3.271611 -2.03447,2.026009 -2.59197,2.44217 -3.27161,2.44217 -1.0891,0 -2.21352,0.904204 -2.21352,1.780002 0,0.645174 0.027,0.658853 0.48385,0.24538 0.26612,-0.240835 0.66439,-0.437882 0.88504,-0.437882 0.48062,0 1.27694,0.824991 1.27694,1.322917 0,0.195364 -0.19705,0.572942 -0.43788,0.839062 -0.41236,0.455656 -0.40179,0.483854 0.18138,0.483854 0.3406,0 0.9246,-0.26789 1.29778,-0.595312 l 0.67851,-0.595313 -0.64143,0.727604 c -0.46986,0.532981 -0.88914,0.727605 -1.56748,0.727605 h -0.92604 z m 10.31067,-0.579783 c 0.0679,-0.69172 -0.16872,-1.01625 -1.8174,-2.492344 -1.95327,-1.748806 -2.30487,-1.838198 -2.98557,-0.759065 -0.20553,0.325836 0.10221,0.826031 1.42148,2.310449 1.4776,1.662559 1.78298,1.884883 2.4936,1.815407 0.68506,-0.06698 0.82183,-0.201672 0.88789,-0.874447 z m -2.32705,-1.321393 c -0.64268,-0.654844 -1.10898,-1.190625 -1.03622,-1.190625 0.0728,0 0.65812,0.535781 1.3008,1.190625 0.64268,0.654844 1.10898,1.190625 1.03622,1.190625 -0.0728,0 -0.65812,-0.535781 -1.3008,-1.190625 z m -2.33594,-2.422257 c 0.47306,-0.428113 0.66289,-1.149618 0.30247,-1.149618 -0.26397,0 -1.40611,1.112029 -1.40611,1.369037 0,0.363116 0.58944,0.245927 1.10364,-0.219419 z m -1.50052,-1.414202 c 0.86402,-0.873125 1.63047,-1.5875 1.70323,-1.5875 0.0728,0 -0.57463,0.714375 -1.43864,1.5875 -0.86402,0.873126 -1.63047,1.587501 -1.70323,1.587501 -0.0728,0 0.57463,-0.714375 1.43864,-1.587501 z m -6.21771,-5.523853 c 0,-0.26685 0.76523,-0.954002 0.88834,-0.797704 0.045,0.05712 -0.13648,0.312208 -0.40327,0.56687 -0.26679,0.254661 -0.48507,0.358537 -0.48507,0.230834 z"
         id="path1080" />
    </g>
  </g>
</svg>
